<svg xmlns="http://www.w3.org/2000/svg" width="336" height="177" fill="none" viewBox="0 0 336 177"><g filter="url(#filter0_f_2055_24756)"><rect width="69.333" height="69.333" x="119.307" y="88.461" fill="#D2A253" transform="rotate(-45 119.307 88.4609)"/><rect width="68.833" height="68.833" x="119.66" y="88.461" stroke="url(#paint0_linear_2055_24756)" stroke-width=".5" transform="rotate(-45 119.66 88.4609)"/></g><path stroke="url(#paint1_linear_2055_24756)" stroke-opacity=".4" d="M202.216 52.0146H135.695L104.322 89.1592L137.438 124.907H198.149L232.342 89.3341L202.216 52.0146Z"/><path stroke="url(#paint2_linear_2055_24756)" stroke-opacity=".4" d="M225.625 54.4561H110.914L77.1787 89.1124L113.919 122.466H218.612L259.486 88.9255L225.625 54.4561Z"/><g filter="url(#filter1_f_2055_24756)"><mask id="path-5-inside-1_2055_24756" fill="#fff"><path fill-rule="evenodd" d="M70.7283 120.56L41 88.6494V88.5596L70.7283 56.5596H271.966H271.966L301.694 88.5596V88.6494L271.966 120.56H271.966H70.7283Z" clip-rule="evenodd"/></mask><path fill="#E19F0F" fill-opacity=".2" fill-rule="evenodd" d="M70.7283 120.56L41 88.6494V88.5596L70.7283 56.5596H271.966H271.966L301.694 88.5596V88.6494L271.966 120.56H271.966H70.7283Z" clip-rule="evenodd"/><path fill="#F0F467" fill-opacity=".8" d="M41 88.6494H40.5V88.8462L40.6342 88.9902L41 88.6494ZM70.7283 120.56L70.3625 120.9L70.5108 121.06H70.7283V120.56ZM41 88.5596L40.6337 88.2193L40.5 88.3632V88.5596H41ZM70.7283 56.5596V56.0596H70.5104L70.362 56.2193L70.7283 56.5596ZM271.966 56.5596L272.333 56.2193L272.184 56.0596H271.966V56.5596ZM301.694 88.5596H302.194V88.3632L302.06 88.2193L301.694 88.5596ZM301.694 88.6494L302.06 88.9902L302.194 88.8462V88.6494H301.694ZM271.966 120.56V121.06H272.184L272.332 120.9L271.966 120.56ZM40.6342 88.9902L70.3625 120.9L71.0942 120.219L41.3658 88.3086L40.6342 88.9902ZM40.5 88.5596V88.6494H41.5V88.5596H40.5ZM70.362 56.2193L40.6337 88.2193L41.3663 88.8999L71.0946 56.8999L70.362 56.2193ZM271.966 56.0596H70.7283V57.0596H271.966V56.0596ZM271.966 56.0596H271.966V57.0596H271.966V56.0596ZM302.06 88.2193L272.333 56.2193L271.6 56.8999L301.328 88.8999L302.06 88.2193ZM302.194 88.6494V88.5596H301.194V88.6494H302.194ZM272.332 120.9L302.06 88.9902L301.328 88.3086L271.6 120.219L272.332 120.9ZM271.966 121.06H271.966V120.06H271.966V121.06ZM70.7283 121.06H271.966V120.06H70.7283V121.06Z" mask="url(#path-5-inside-1_2055_24756)"/></g><g filter="url(#filter2_f_2055_24756)"><path fill="#FABE3E" fill-rule="evenodd" d="M69.7769 108.286L40.6582 88.5166V88.4609L69.7769 68.6357H266.888V108.286H69.7769ZM296.008 88.5166L266.889 108.286V68.6357L296.008 88.4609V88.5166Z" clip-rule="evenodd"/></g><g filter="url(#filter3_f_2055_24756)"><path fill="#FABE3E" fill-rule="evenodd" d="M69.7769 108.286L40.6582 88.5166V88.4609L69.7769 68.6357H266.888V108.286H69.7769ZM296.008 88.5166L266.889 108.286V68.6357L296.008 88.4609V88.5166Z" clip-rule="evenodd"/></g><g filter="url(#filter4_f_2055_24756)"><path fill="#FAB620" fill-rule="evenodd" d="M69.7769 94.3926L40.6582 88.4771V88.4604L69.7769 82.5283H266.888V94.3926H69.7769ZM296.008 88.4771L266.889 94.3926V82.5283L296.008 88.4604V88.4771Z" clip-rule="evenodd"/></g><rect width="68.833" height="68.833" x="119.66" y="88.461" fill="#D2A253" fill-opacity=".2" stroke="url(#paint3_linear_2055_24756)" stroke-width=".5" transform="rotate(-45 119.66 88.4609)"/><rect width="58.749" height="58.749" x="126.791" y="88.461" fill="#D2A253" fill-opacity=".2" stroke="url(#paint4_linear_2055_24756)" stroke-width="4" transform="rotate(-45 126.791 88.4609)"/><rect width="117.042" height="117.042" x="85.571" y="88.46" stroke="url(#paint5_linear_2055_24756)" stroke-opacity=".2" stroke-width="8" transform="rotate(-45 85.5709 88.46)"/><rect width="94.607" height="94.607" x="101.434" y="88.56" stroke="url(#paint6_linear_2055_24756)" stroke-opacity=".2" stroke-width="4" transform="rotate(-45 101.434 88.5596)"/><defs><filter id="filter0_f_2055_24756" width="138.053" height="138.053" x="99.307" y="19.435" color-interpolation-filters="sRGB" filterUnits="userSpaceOnUse"><feFlood flood-opacity="0" result="BackgroundImageFix"/><feBlend in="SourceGraphic" in2="BackgroundImageFix" mode="normal" result="shape"/><feGaussianBlur result="effect1_foregroundBlur_2055_24756" stdDeviation="10"/></filter><filter id="filter1_f_2055_24756" width="264.694" height="68" x="39" y="54.56" color-interpolation-filters="sRGB" filterUnits="userSpaceOnUse"><feFlood flood-opacity="0" result="BackgroundImageFix"/><feBlend in="SourceGraphic" in2="BackgroundImageFix" mode="normal" result="shape"/><feGaussianBlur result="effect1_foregroundBlur_2055_24756" stdDeviation="1"/></filter><filter id="filter2_f_2055_24756" width="281.35" height="65.65" x="27.658" y="55.636" color-interpolation-filters="sRGB" filterUnits="userSpaceOnUse"><feFlood flood-opacity="0" result="BackgroundImageFix"/><feBlend in="SourceGraphic" in2="BackgroundImageFix" mode="normal" result="shape"/><feGaussianBlur result="effect1_foregroundBlur_2055_24756" stdDeviation="6.5"/></filter><filter id="filter3_f_2055_24756" width="335.35" height="119.65" x=".658" y="28.636" color-interpolation-filters="sRGB" filterUnits="userSpaceOnUse"><feFlood flood-opacity="0" result="BackgroundImageFix"/><feBlend in="SourceGraphic" in2="BackgroundImageFix" mode="normal" result="shape"/><feGaussianBlur result="effect1_foregroundBlur_2055_24756" stdDeviation="20"/></filter><filter id="filter4_f_2055_24756" width="275.35" height="31.864" x="30.658" y="72.528" color-interpolation-filters="sRGB" filterUnits="userSpaceOnUse"><feFlood flood-opacity="0" result="BackgroundImageFix"/><feBlend in="SourceGraphic" in2="BackgroundImageFix" mode="normal" result="shape"/><feGaussianBlur result="effect1_foregroundBlur_2055_24756" stdDeviation="5"/></filter><linearGradient id="paint0_linear_2055_24756" x1="195.163" x2="105.96" y1="82.985" y2="169.718" gradientUnits="userSpaceOnUse"><stop stop-color="#FFBD2B"/><stop offset=".456" stop-color="#D0A84F" stop-opacity="0"/><stop offset="1" stop-color="#FFBD2B"/></linearGradient><linearGradient id="paint1_linear_2055_24756" x1="171.86" x2="171.86" y1="52.015" y2="124.907" gradientUnits="userSpaceOnUse"><stop stop-color="#F3DAA2"/><stop offset=".077" stop-color="#E0C895" stop-opacity="0"/><stop offset=".943" stop-color="#C3AF82" stop-opacity="0"/><stop offset="1" stop-color="#F3D391"/></linearGradient><linearGradient id="paint2_linear_2055_24756" x1="173.278" x2="173.278" y1="54.456" y2="122.466" gradientUnits="userSpaceOnUse"><stop stop-color="#F3DAA2"/><stop offset=".067" stop-color="#E0C895" stop-opacity="0"/><stop offset=".95" stop-color="#C3AF82" stop-opacity="0"/><stop offset="1" stop-color="#F3D391"/></linearGradient><linearGradient id="paint3_linear_2055_24756" x1="195.163" x2="105.96" y1="82.985" y2="169.718" gradientUnits="userSpaceOnUse"><stop stop-color="#F6D397"/><stop offset=".456" stop-color="#D0A84F" stop-opacity="0"/><stop offset="1" stop-color="#F6D397"/></linearGradient><linearGradient id="paint4_linear_2055_24756" x1="201.719" x2="103.362" y1="72.166" y2="170.523" gradientUnits="userSpaceOnUse"><stop offset=".133" stop-color="#FEF2DD"/><stop offset=".371" stop-color="#D0A84F" stop-opacity="0"/><stop offset=".655" stop-color="#E1BB70" stop-opacity="0"/><stop offset=".765" stop-color="#F9DDAE"/></linearGradient><linearGradient id="paint5_linear_2055_24756" x1="234.862" x2="38.862" y1="251.988" y2="55.988" gradientUnits="userSpaceOnUse"><stop offset=".133" stop-color="#FEF2DD"/><stop offset=".371" stop-color="#D0A84F" stop-opacity="0"/><stop offset=".655" stop-color="#E1BB70" stop-opacity="0"/><stop offset=".765" stop-color="#F9DDAE"/></linearGradient><linearGradient id="paint6_linear_2055_24756" x1="220.796" x2="66.232" y1="217.517" y2="62.953" gradientUnits="userSpaceOnUse"><stop offset=".133" stop-color="#FEF2DD"/><stop offset=".371" stop-color="#D0A84F" stop-opacity="0"/><stop offset=".655" stop-color="#E1BB70" stop-opacity="0"/><stop offset=".765" stop-color="#F9DDAE"/></linearGradient></defs></svg>