<svg xmlns="http://www.w3.org/2000/svg" width="44" height="44" fill="none" viewBox="0 0 44 44"><g filter="url(#filter0_bf_11_31788)"><circle cx="22" cy="22" r="18" fill="#000" fill-opacity=".5"/></g><g clip-path="url(#clip0_11_31788)"><path fill="url(#paint0_linear_11_31788)" d="M22.8063 4L23.1442 5.03218C27.2052 5.33105 30.9836 7.05505 33.8921 9.96066C37.1054 13.1707 38.8727 17.435 38.8727 21.9733C38.8727 26.5116 37.1054 30.7787 33.8921 33.9887C30.978 36.8999 27.1913 38.6239 23.1221 38.9199L22.8035 39.9494C32.3187 39.4623 39.8838 31.6006 39.8838 21.9761C39.8838 12.3488 32.3215 4.48704 22.8063 4ZM20.5403 38.9144C16.4988 38.6045 12.7398 36.8833 9.84228 33.9887C6.62898 30.7787 4.86167 26.5116 4.86167 21.9733C4.86167 17.435 6.62898 13.1679 9.84228 9.96066C12.737 7.06888 16.4905 5.34765 20.5293 5.03495L20.8534 4.00277C11.3741 4.53131 3.85059 12.3737 3.85059 21.9733C3.85059 31.5812 11.3852 39.4291 20.8727 39.9438L20.87 39.9411L20.5403 38.9144Z"/><path fill="url(#paint1_linear_11_31788)" d="M22.9588 39.4484L22.8037 39.9465C30.6347 39.5453 37.1472 34.1491 39.2054 26.8823C36.9948 33.8558 30.6153 39.0001 22.9588 39.4484ZM20.7123 39.4429C13.0862 38.9697 6.73721 33.8364 4.53223 26.8823C6.58486 34.1298 13.0696 39.5204 20.8757 39.9438L20.8729 39.941L20.7123 39.4429Z" opacity=".5"/><path fill="url(#paint2_linear_11_31788)" d="M34.2357 9.62006C31.1969 6.58439 27.2357 4.80228 22.9836 4.53662L23.147 5.02919C27.208 5.32806 30.9864 7.05205 33.895 9.95767C37.1083 13.1677 38.8756 17.432 38.8756 21.9703C38.8756 26.5086 37.1083 30.7757 33.895 33.9857C30.9808 36.8969 27.1941 38.6209 23.1249 38.917L22.9614 39.4455C27.2218 39.1798 31.1914 37.3701 34.2357 34.3289C37.5376 31.0303 39.3576 26.6414 39.3576 21.9731C39.3576 17.3075 37.5376 12.9186 34.2357 9.62006ZM20.5404 38.9142C16.4961 38.6043 12.7371 36.883 9.83956 33.9885C6.62626 30.7785 4.85895 26.5114 4.85895 21.9731C4.85895 17.4348 6.62626 13.1677 9.83956 9.96043C12.7343 7.06866 16.4878 5.34743 20.5265 5.03473L20.6817 4.54216C16.4573 4.82165 12.5238 6.60099 9.50161 9.62006C6.1969 12.9186 4.37695 17.3075 4.37695 21.9731C4.37695 26.6387 6.1969 31.0275 9.49884 34.3289C12.5265 37.3535 16.4739 39.1632 20.7094 39.4427L20.5404 38.9142Z"/><path fill="url(#paint3_linear_11_31788)" d="M22.8063 4L22.9836 4.53685C30.629 4.99068 36.9974 10.1018 39.208 17.0642C37.147 9.79739 30.6373 4.40125 22.8063 4ZM4.5293 17.0642C6.73151 10.1212 13.0695 5.02112 20.6844 4.53961L20.8534 4.00277C13.0556 4.43723 6.58193 9.8223 4.5293 17.0642Z" opacity=".5"/><path fill="url(#paint4_linear_11_31788)" d="M33.4374 10.4171C30.6452 7.6249 27.0164 5.96732 23.1189 5.67676L22.8031 6.65637C26.5538 6.88051 30.0496 8.44678 32.7311 11.1227C35.6313 14.02 37.2297 17.8748 37.2297 21.9731C37.2297 26.0742 35.6313 29.9262 32.7311 32.8235C30.0552 35.4967 26.5676 37.0629 22.8225 37.2898L23.1299 38.2694C27.0247 37.9761 30.648 36.3185 33.4402 33.5291C36.5288 30.4409 38.2324 26.3371 38.2324 21.9703C38.2297 17.6064 36.5288 13.5025 33.4374 10.4171ZM20.8696 6.65913L20.551 5.67953C16.6757 5.98392 13.0745 7.63874 10.2962 10.4143C7.20474 13.5025 5.50391 17.6064 5.50391 21.9731C5.50391 26.3398 7.20751 30.4437 10.2962 33.5319C13.0745 36.3075 16.6729 37.9595 20.5455 38.2667L20.8668 37.2871C17.1383 37.0491 13.6673 35.4856 11.0025 32.8235C8.10224 29.9262 6.50391 26.0714 6.50391 21.9731C6.50391 17.8748 8.10224 14.02 11.0025 11.1227C13.6701 8.46061 17.141 6.89712 20.8696 6.65913Z"/><path fill="url(#paint5_linear_11_31788)" d="M33.6671 33.0004C30.7751 35.8341 27.0078 37.4972 22.9635 37.7518L23.1269 38.272C27.0217 37.9787 30.6449 36.3211 33.4372 33.5317C34.6699 32.3003 35.681 30.9056 36.4538 29.3975C35.7087 30.7008 34.7779 31.9129 33.6671 33.0004ZM7.2793 29.3975C8.04938 30.9056 9.06323 32.3003 10.2959 33.5317C13.0743 36.3073 16.6726 37.9593 20.5452 38.2665L20.7142 37.749C16.6893 37.4834 12.9441 35.8203 10.0632 33.0004C8.95797 31.9129 8.02445 30.7008 7.2793 29.3975Z" opacity=".5"/><path fill="url(#paint6_linear_11_31788)" d="M33.4372 10.4171C30.6449 7.6249 27.0161 5.96732 23.1186 5.67676L22.9497 6.197C26.9995 6.44882 30.7724 8.11471 33.6671 10.9511C34.7751 12.0359 35.7087 13.248 36.4538 14.5541C35.6837 13.0432 34.6699 11.6485 33.4372 10.4171ZM10.2959 10.4171C9.06323 11.6485 8.04938 13.0432 7.2793 14.5513C8.02445 13.248 8.95797 12.0359 10.066 10.9484C12.9469 8.12854 16.6948 6.46542 20.7197 6.19977L20.5508 5.68229C16.6782 5.98669 13.0743 7.64151 10.2959 10.4171Z" opacity=".5"/><path fill="url(#paint7_linear_11_31788)" d="M33.0689 10.7852C30.3348 8.05393 26.7753 6.44339 22.9526 6.18604L22.803 6.65647C26.5537 6.88062 30.0495 8.44688 32.7309 11.1228C35.6312 14.0201 37.2296 17.8749 37.2296 21.9732C37.2296 26.0743 35.6312 29.9263 32.7309 32.8236C30.055 35.4968 26.5675 37.063 22.8224 37.2899L22.9692 37.7604C26.7863 37.5003 30.3376 35.8925 33.0689 33.164C36.0606 30.1753 37.7088 26.2016 37.7088 21.976C37.706 17.7476 36.0606 13.7738 33.0689 10.7852ZM20.8695 6.65924L20.7171 6.19157C16.9193 6.45999 13.3847 8.06777 10.6672 10.7852C7.67554 13.7738 6.02734 17.7476 6.02734 21.9732C6.02734 26.1988 7.67554 30.1726 10.6672 33.1612C13.3847 35.8759 16.9193 37.4837 20.7143 37.7548L20.8667 37.2872C17.1381 37.0492 13.6672 35.4857 11.0024 32.8236C8.10214 29.9263 6.5038 26.0715 6.5038 21.9732C6.5038 17.8749 8.10214 14.0201 11.0024 11.1228C13.67 8.46072 17.1409 6.89722 20.8695 6.65924Z"/><path fill="url(#paint8_linear_11_31788)" d="M20.6983 4.51465L22.9725 6.13072L22.8035 6.6565L20.5293 5.03489L20.6983 4.51465Z"/><path fill="url(#paint9_linear_11_31788)" d="M23.1193 5.67435L22.9531 6.19459L20.6982 4.51487L20.8534 4.00293L23.1193 5.67435Z"/><path fill="url(#paint10_linear_11_31788)" d="M22.9725 4.51465L20.6982 6.13072L20.87 6.65927L23.1442 5.03212L22.9725 4.51465Z"/><path fill="url(#paint11_linear_11_31788)" d="M20.5518 5.67972L20.6986 6.13078L22.9728 4.51471L22.8066 4L20.5518 5.67972Z"/><path fill="url(#paint12_linear_11_31788)" d="M22.9782 4.53662L20.7178 6.19144L20.8701 6.6591L23.1444 5.03196L22.9782 4.53662Z"/><path fill="url(#paint13_linear_11_31788)" d="M20.5518 5.67972L20.718 6.19166L22.9784 4.53685L22.8066 4L20.5518 5.67972Z"/><path fill="url(#paint14_linear_11_31788)" d="M21.9808 4.61426C21.9808 4.61426 22.039 4.80243 22.3437 5.01274C22.3437 5.01274 22.5016 5.08746 22.978 5.14834L21.1082 6.49045C21.1082 6.49045 21.3049 5.98681 21.2716 5.78204C21.2716 5.78204 20.9531 5.60493 20.6982 5.57173L21.9808 4.61426Z" opacity=".8"/><path fill="url(#paint15_linear_11_31788)" d="M20.69 4.54248L22.9531 6.18623L22.8035 6.65666L20.5293 5.03505L20.69 4.54248Z"/><path fill="url(#paint16_linear_11_31788)" d="M23.1198 5.67435L22.9536 6.18629L20.6904 4.54254L20.8539 4.00293L23.1198 5.67435Z"/><path fill="url(#paint17_linear_11_31788)" d="M22.9635 37.7603L20.7031 39.4178L20.8721 39.9436L23.1297 38.2722L22.9635 37.7603Z"/><path fill="url(#paint18_linear_11_31788)" d="M20.5566 38.9611L20.7228 39.4814L22.9777 37.8017L22.8226 37.2925L20.5566 38.9611Z"/><path fill="url(#paint19_linear_11_31788)" d="M20.7176 37.7573L22.978 39.4177L22.8063 39.9462L20.5459 38.2665L20.7176 37.7573Z"/><path fill="url(#paint20_linear_11_31788)" d="M23.1222 38.9668L22.9782 39.4179L20.7178 37.7575L20.8701 37.2871L23.1222 38.9668Z"/><path fill="url(#paint21_linear_11_31788)" d="M20.7176 37.7573L22.9697 39.4481L22.8063 39.9462L20.5459 38.2665L20.7176 37.7573Z"/><path fill="url(#paint22_linear_11_31788)" d="M23.1222 38.9198L22.9699 39.4483L20.7178 37.7575L20.8701 37.2871L23.1222 38.9198Z"/><path fill="url(#paint23_linear_11_31788)" d="M21.7089 37.896C21.7089 37.896 21.6369 38.0925 21.4015 38.2834C21.4015 38.2834 21.2159 38.3526 20.7422 38.4135L22.299 39.5702C22.299 39.5702 22.3876 39.2492 22.4209 39.0444C22.4209 39.0444 22.7422 38.8645 22.997 38.8286L21.7089 37.896Z" opacity=".8"/><path fill="url(#paint24_linear_11_31788)" d="M22.964 37.7603L20.7119 39.4427L20.8726 39.9436L23.1302 38.2722L22.964 37.7603Z"/><path fill="url(#paint25_linear_11_31788)" d="M20.54 38.9141L20.7118 39.4426L22.9639 37.7601L22.8226 37.2925L20.54 38.9141Z"/><path fill="url(#paint26_linear_11_31788)" d="M3.98876 24.3198L4.46522 23.913L5.0691 24.6381L4.86134 23.0497L5.50677 22.9832C5.50677 22.9832 5.63973 24.1787 5.72561 24.6574L6.13558 23.819L6.63696 23.985C6.63696 23.985 6.4763 22.9307 6.50954 21.7214L3.70898 21.5332L3.98876 24.3198Z" opacity=".8"/><path fill="url(#paint27_linear_11_31788)" d="M39.7398 24.2894L39.2717 23.8909L38.69 24.5025L38.8755 22.986L38.2329 22.9639C38.2329 22.9639 38.0999 24.1593 38.0141 24.6381L37.6041 23.7996L37.1055 23.9269C37.1055 23.9269 37.2634 22.9085 37.2301 21.6992L40.0307 21.5083L39.7398 24.2894Z" opacity=".8"/><path fill="url(#paint28_linear_11_31788)" d="M36.7777 20.5869C35.9439 21.9872 36.9106 23.4759 38.2181 23.7084C39.5284 23.9408 41.0436 22.726 40.545 21.0325C40.0464 19.3389 37.509 19.3583 36.7777 20.5869Z"/><path fill="url(#paint29_linear_11_31788)" d="M37.6508 20.2217C36.9251 20.5953 36.6453 21.8627 37.2797 22.6486C37.914 23.4345 39.3988 23.5258 39.9971 22.4245C40.6453 21.2401 39.468 19.2864 37.6508 20.2217Z" opacity=".7"/><path fill="url(#paint30_linear_11_31788)" d="M40.0379 21.5887C40.0379 22.4134 39.3703 23.0803 38.5448 23.0803C37.7193 23.0803 37.0518 22.4134 37.0518 21.5887C37.0518 20.7641 37.7193 20.0972 38.5448 20.0972C39.3703 20.0944 40.0379 20.7641 40.0379 21.5887Z" opacity=".8"/><path fill="url(#paint31_radial_11_31788)" d="M39.9968 21.5335C39.9968 22.336 39.3458 22.9836 38.5453 22.9836C37.7419 22.9836 37.0938 22.3333 37.0938 21.5335C37.0938 20.7338 37.7447 20.0835 38.5453 20.0835C39.3458 20.0835 39.9968 20.731 39.9968 21.5335Z"/><path fill="url(#paint32_linear_11_31788)" d="M39.9968 21.5332C39.9968 22.3357 39.3458 22.9832 38.5453 22.9832C37.7419 22.9832 37.0938 22.3329 37.0938 21.5332C37.0938 21.143 37.2489 20.7888 37.4982 20.5287C37.3735 20.7224 37.3015 20.9548 37.3015 21.2067C37.3015 21.8819 37.8278 22.4298 38.476 22.4298C39.1242 22.4298 39.6505 21.8819 39.6505 21.2067C39.6505 20.8054 39.4649 20.4512 39.1796 20.2271C39.6616 20.4623 39.9968 20.9576 39.9968 21.5332Z" opacity=".5"/><path fill="url(#paint33_radial_11_31788)" d="M39.379 21.2594C39.379 21.7575 38.9746 22.1643 38.4732 22.1643C37.9746 22.1643 37.5674 21.7603 37.5674 21.2594C37.5674 20.7613 37.9718 20.3545 38.4732 20.3545C38.9746 20.3545 39.379 20.7613 39.379 21.2594Z" opacity=".3"/><path fill="url(#paint34_linear_11_31788)" d="M38.4262 20.7725C38.4096 20.9275 38.8418 21.1046 38.9747 21.1046C38.9747 21.1046 39.26 20.8306 39.152 20.5705C39.152 20.5705 38.8362 20.3215 38.5537 20.3934C38.5564 20.3934 38.4512 20.5595 38.4262 20.7725Z"/><path fill="url(#paint35_linear_11_31788)" d="M38.2183 23.7112C37.2294 23.5368 36.4372 22.6458 36.4676 21.6164C36.6089 22.7925 37.4649 23.8191 39.1768 23.4123C39.3845 23.3625 40.5452 22.8257 40.6422 21.6108C40.692 22.9945 39.3735 23.916 38.2183 23.7112Z"/><path fill="url(#paint36_linear_11_31788)" d="M40.4762 20.836C40.4042 21.0104 39.4928 20.1249 39.6147 19.9395C39.9859 20.1221 40.2989 20.4182 40.4762 20.836Z" opacity=".5"/><path fill="url(#paint37_linear_11_31788)" d="M3.3929 20.5869C2.55911 21.9872 3.52587 23.4759 4.83335 23.7084C6.1436 23.9408 7.65883 22.726 7.16022 21.0325C6.6616 19.3389 4.12698 19.3583 3.3929 20.5869Z"/><path fill="url(#paint38_linear_11_31788)" d="M4.26608 20.2217C3.54032 20.5953 3.26054 21.8627 3.89489 22.6486C4.52924 23.4345 6.014 23.5258 6.61234 22.4245C7.26054 21.2401 6.08326 19.2864 4.26608 20.2217Z" opacity=".7"/><path fill="url(#paint39_linear_11_31788)" d="M5.1601 23.1384C6.00307 23.1384 6.68642 22.4557 6.68642 21.6136C6.68642 20.7715 6.00307 20.0889 5.1601 20.0889C4.31714 20.0889 3.63379 20.7715 3.63379 21.6136C3.63379 22.4557 4.31714 23.1384 5.1601 23.1384Z" opacity=".8"/><path fill="url(#paint40_radial_11_31788)" d="M6.61203 21.5335C6.61203 22.336 5.96106 22.9836 5.16051 22.9836C4.35995 22.9836 3.70898 22.3333 3.70898 21.5335C3.70898 20.7338 4.35995 20.0835 5.16051 20.0835C5.96106 20.0835 6.61203 20.731 6.61203 21.5335Z"/><path fill="url(#paint41_linear_11_31788)" d="M6.61203 21.5332C6.61203 22.3357 5.96106 22.9832 5.16051 22.9832C4.35718 22.9832 3.70898 22.3329 3.70898 21.5332C3.70898 21.143 3.86411 20.7888 4.11342 20.5287C3.98876 20.7224 3.91674 20.9548 3.91674 21.2067C3.91674 21.8819 4.44306 22.4298 5.09126 22.4298C5.73946 22.4298 6.26577 21.8819 6.26577 21.2067C6.26577 20.8054 6.08018 20.4512 5.79486 20.2271C6.27685 20.4623 6.61203 20.9576 6.61203 21.5332Z" opacity=".5"/><path fill="url(#paint42_radial_11_31788)" d="M5.99425 21.2594C5.99425 21.7575 5.58982 22.1643 5.08843 22.1643C4.58705 22.1643 4.18262 21.7603 4.18262 21.2594C4.18262 20.7613 4.58705 20.3545 5.08843 20.3545C5.58982 20.3545 5.99425 20.7613 5.99425 21.2594Z" opacity=".3"/><path fill="url(#paint43_linear_11_31788)" d="M5.04441 20.7725C5.02779 20.9275 5.45992 21.1046 5.59289 21.1046C5.59289 21.1046 5.87821 20.8306 5.77017 20.5705C5.77017 20.5705 5.45438 20.3215 5.17184 20.3934C5.17184 20.3934 5.06657 20.5595 5.04441 20.7725Z"/><path fill="url(#paint44_linear_11_31788)" d="M4.83357 23.7112C3.84465 23.5368 3.05241 22.6458 3.08288 21.6164C3.22416 22.7925 4.08011 23.8191 5.79202 23.4123C5.99978 23.3625 7.16044 22.8257 7.2574 21.6108C7.30726 22.9945 5.9887 23.916 4.83357 23.7112Z"/><path fill="url(#paint45_linear_11_31788)" d="M7.09145 20.836C7.01943 21.0104 6.10807 20.1249 6.22995 19.9395C6.60114 20.1221 6.91416 20.4182 7.09145 20.836Z" opacity=".5"/><g filter="url(#filter1_d_11_31788)"><path fill="url(#paint46_linear_11_31788)" fill-rule="evenodd" d="M28.5169 12.7866H15.9323C14.1947 12.7866 12.7861 14.1952 12.7861 15.9329V28.5175C12.7861 30.2549 14.1947 31.6634 15.9323 31.6634H22.8755V24.5731H20.5086V21.832H22.8755V19.8105C22.8755 17.4646 24.308 16.1875 26.4009 16.1875C27.4032 16.1875 28.2647 16.262 28.5158 16.2955V18.7469L27.0643 18.7476C25.9263 18.7476 25.706 19.2884 25.706 20.0821V21.832H28.4203L28.0667 24.5731H25.706V31.6634H28.5169C30.2544 31.6634 31.6631 30.2549 31.6631 28.5175V15.9329C31.6631 14.1952 30.2544 12.7866 28.5169 12.7866Z" clip-rule="evenodd"/></g></g><defs><filter id="filter0_bf_11_31788" width="44" height="44" x="0" y="0" color-interpolation-filters="sRGB" filterUnits="userSpaceOnUse"><feFlood flood-opacity="0" result="BackgroundImageFix"/><feGaussianBlur in="BackgroundImageFix" stdDeviation="2"/><feComposite in2="SourceAlpha" operator="in" result="effect1_backgroundBlur_11_31788"/><feBlend in="SourceGraphic" in2="effect1_backgroundBlur_11_31788" mode="normal" result="shape"/><feGaussianBlur result="effect2_foregroundBlur_11_31788" stdDeviation="2"/></filter><filter id="filter1_d_11_31788" width="60.45" height="60.45" x="-8" y="-8" color-interpolation-filters="sRGB" filterUnits="userSpaceOnUse"><feFlood flood-opacity="0" result="BackgroundImageFix"/><feColorMatrix in="SourceAlpha" result="hardAlpha" type="matrix" values="0 0 0 0 0 0 0 0 0 0 0 0 0 0 0 0 0 0 127 0"/><feOffset/><feGaussianBlur stdDeviation="10"/><feComposite in2="hardAlpha" operator="out"/><feColorMatrix type="matrix" values="0 0 0 0 0 0 0 0 0 0 0 0 0 0 0 0 0 0 0.5 0"/><feBlend in2="BackgroundImageFix" mode="normal" result="effect1_dropShadow_11_31788"/><feBlend in="SourceGraphic" in2="effect1_dropShadow_11_31788" mode="normal" result="shape"/></filter><linearGradient id="paint0_linear_11_31788" x1="21.868" x2="21.868" y1="39.949" y2="4" gradientUnits="userSpaceOnUse"><stop stop-color="#CA6B34"/><stop offset=".74" stop-color="#FFBD2B"/><stop offset="1" stop-color="#FFA933"/></linearGradient><linearGradient id="paint1_linear_11_31788" x1="21.868" x2="21.868" y1="26.884" y2="39.948" gradientUnits="userSpaceOnUse"><stop stop-color="#F08D1D"/><stop offset="1" stop-color="#8D2C1B"/></linearGradient><linearGradient id="paint2_linear_11_31788" x1="21.868" x2="21.868" y1="4.537" y2="39.446" gradientUnits="userSpaceOnUse"><stop stop-color="#CA6B34"/><stop offset=".174" stop-color="#CC6E34"/><stop offset=".292" stop-color="#D27733"/><stop offset=".393" stop-color="#DB8631"/><stop offset=".485" stop-color="#E99B2F"/><stop offset=".569" stop-color="#FBB72C"/><stop offset=".585" stop-color="#FFBD2B"/><stop offset="1" stop-color="#FFA933"/></linearGradient><linearGradient id="paint3_linear_11_31788" x1="21.868" x2="21.868" y1="17.064" y2="4" gradientUnits="userSpaceOnUse"><stop stop-color="#EBBD38"/><stop offset="1" stop-color="#FFF29E"/></linearGradient><linearGradient id="paint4_linear_11_31788" x1="21.867" x2="21.867" y1="38.272" y2="5.675" gradientUnits="userSpaceOnUse"><stop stop-color="#CA6B34"/><stop offset=".74" stop-color="#FFBD2B"/><stop offset="1" stop-color="#FFA933"/></linearGradient><linearGradient id="paint5_linear_11_31788" x1="21.867" x2="21.867" y1="29.397" y2="38.272" gradientUnits="userSpaceOnUse"><stop stop-color="#F08D1D"/><stop offset="1" stop-color="#8D2C1B"/></linearGradient><linearGradient id="paint6_linear_11_31788" x1="21.867" x2="21.867" y1="14.55" y2="5.675" gradientUnits="userSpaceOnUse"><stop stop-color="#EBBD38"/><stop offset="1" stop-color="#FFF29E"/></linearGradient><linearGradient id="paint7_linear_11_31788" x1="21.867" x2="21.867" y1="6.187" y2="37.76" gradientUnits="userSpaceOnUse"><stop stop-color="#CA6B34"/><stop offset=".174" stop-color="#CC6E34"/><stop offset=".292" stop-color="#D27733"/><stop offset=".393" stop-color="#DB8631"/><stop offset=".485" stop-color="#E99B2F"/><stop offset=".569" stop-color="#FBB72C"/><stop offset=".585" stop-color="#FFBD2B"/><stop offset="1" stop-color="#FFA933"/></linearGradient><linearGradient id="paint8_linear_11_31788" x1="21.235" x2="21.618" y1="6.589" y2="5.842" gradientUnits="userSpaceOnUse"><stop stop-color="#D16509"/><stop offset="1" stop-color="#8D2C1B"/></linearGradient><linearGradient id="paint9_linear_11_31788" x1="22.047" x2="24.878" y1="5.083" y2="4.757" gradientUnits="userSpaceOnUse"><stop stop-color="#CA6B34"/><stop offset="1" stop-color="#FFBD2B"/></linearGradient><linearGradient id="paint10_linear_11_31788" x1="20.267" x2="23.836" y1="6.928" y2="4.015" gradientUnits="userSpaceOnUse"><stop stop-color="#D16509"/><stop offset="1" stop-color="#8D2C1B"/></linearGradient><linearGradient id="paint11_linear_11_31788" x1="21.986" x2="21.569" y1="5.5" y2="4.724" gradientUnits="userSpaceOnUse"><stop stop-color="#E39330"/><stop offset="1" stop-color="#FFCD61"/></linearGradient><linearGradient id="paint12_linear_11_31788" x1="21.737" x2="22.17" y1="5.202" y2="6.119" gradientUnits="userSpaceOnUse"><stop stop-color="#D16509"/><stop offset="1" stop-color="#8D2C1B"/></linearGradient><linearGradient id="paint13_linear_11_31788" x1="21.766" x2="21.766" y1="6.207" y2="4.016" gradientUnits="userSpaceOnUse"><stop stop-color="#CA6B34"/><stop offset="1" stop-color="#FFBD2B"/></linearGradient><linearGradient id="paint14_linear_11_31788" x1="22.978" x2="20.697" y1="5.553" y2="5.553" gradientUnits="userSpaceOnUse"><stop stop-color="#F08D1D"/><stop offset="1" stop-color="#8D2C1B"/></linearGradient><linearGradient id="paint15_linear_11_31788" x1="23.383" x2="19.827" y1="6.948" y2="4.046" gradientUnits="userSpaceOnUse"><stop stop-color="#D16509"/><stop offset="1" stop-color="#8D2C1B"/></linearGradient><linearGradient id="paint16_linear_11_31788" x1="21.938" x2="21.904" y1="5.959" y2="5.093" gradientUnits="userSpaceOnUse"><stop stop-color="#E39330"/><stop offset="1" stop-color="#FFCD61"/></linearGradient><linearGradient id="paint17_linear_11_31788" x1="22.457" x2="22.056" y1="39.901" y2="39.12" gradientUnits="userSpaceOnUse"><stop stop-color="#D16509"/><stop offset="1" stop-color="#8D2C1B"/></linearGradient><linearGradient id="paint18_linear_11_31788" x1="21.627" x2="18.797" y1="38.37" y2="38.044" gradientUnits="userSpaceOnUse"><stop stop-color="#CA6B34"/><stop offset="1" stop-color="#FFBD2B"/></linearGradient><linearGradient id="paint19_linear_11_31788" x1="23.427" x2="19.838" y1="40.198" y2="37.269" gradientUnits="userSpaceOnUse"><stop stop-color="#D16509"/><stop offset="1" stop-color="#8D2C1B"/></linearGradient><linearGradient id="paint20_linear_11_31788" x1="21.689" x2="22.107" y1="38.787" y2="38.011" gradientUnits="userSpaceOnUse"><stop stop-color="#E39330"/><stop offset="1" stop-color="#FFCD61"/></linearGradient><linearGradient id="paint21_linear_11_31788" x1="21.218" x2="21.622" y1="39.911" y2="39.122" gradientUnits="userSpaceOnUse"><stop stop-color="#D16509"/><stop offset="1" stop-color="#8D2C1B"/></linearGradient><linearGradient id="paint22_linear_11_31788" x1="21.921" x2="21.921" y1="39.463" y2="37.303" gradientUnits="userSpaceOnUse"><stop stop-color="#CA6B34"/><stop offset="1" stop-color="#FFBD2B"/></linearGradient><linearGradient id="paint23_linear_11_31788" x1="20.741" x2="22.997" y1="38.732" y2="38.732" gradientUnits="userSpaceOnUse"><stop stop-color="#F08D1D"/><stop offset="1" stop-color="#8D2C1B"/></linearGradient><linearGradient id="paint24_linear_11_31788" x1="20.262" x2="23.851" y1="40.208" y2="37.279" gradientUnits="userSpaceOnUse"><stop stop-color="#D16509"/><stop offset="1" stop-color="#8D2C1B"/></linearGradient><linearGradient id="paint25_linear_11_31788" x1="21.718" x2="21.751" y1="39.219" y2="38.364" gradientUnits="userSpaceOnUse"><stop stop-color="#E39330"/><stop offset="1" stop-color="#FFCD61"/></linearGradient><linearGradient id="paint26_linear_11_31788" x1="5.172" x2="5.172" y1="21.271" y2="24.04" gradientUnits="userSpaceOnUse"><stop stop-color="#F08D1D"/><stop offset="1" stop-color="#8D2C1B"/></linearGradient><linearGradient id="paint27_linear_11_31788" x1="38.567" x2="38.567" y1="21.271" y2="24.04" gradientUnits="userSpaceOnUse"><stop stop-color="#F08D1D"/><stop offset="1" stop-color="#8D2C1B"/></linearGradient><linearGradient id="paint28_linear_11_31788" x1="38.555" x2="38.555" y1="23.749" y2="19.951" gradientUnits="userSpaceOnUse"><stop stop-color="#CA6B34"/><stop offset="1" stop-color="#FFBD2B"/></linearGradient><linearGradient id="paint29_linear_11_31788" x1="38.551" x2="38.551" y1="23.626" y2="20.888" gradientUnits="userSpaceOnUse"><stop stop-color="#F08D1D"/><stop offset="1" stop-color="#8D2C1B"/></linearGradient><linearGradient id="paint30_linear_11_31788" x1="38.544" x2="38.544" y1="23.817" y2="21.854" gradientUnits="userSpaceOnUse"><stop stop-color="#F08D1D"/><stop offset=".215" stop-color="#D4721C"/><stop offset=".557" stop-color="#AE4C1C"/><stop offset=".831" stop-color="#96351B"/><stop offset="1" stop-color="#8D2C1B"/></linearGradient><radialGradient id="paint31_radial_11_31788" cx="0" cy="0" r="1" gradientTransform="translate(38.5444 21.5333) scale(1.4523 1.45081)" gradientUnits="userSpaceOnUse"><stop stop-color="#D14B4B"/><stop offset=".166" stop-color="#C84141"/><stop offset=".445" stop-color="#B02727"/><stop offset=".728" stop-color="#910606"/><stop offset=".827" stop-color="#940F0F"/><stop offset=".985" stop-color="#9D2626"/><stop offset="1" stop-color="#9E2929"/></radialGradient><linearGradient id="paint32_linear_11_31788" x1="38.544" x2="38.544" y1="22.891" y2="21.165" gradientUnits="userSpaceOnUse"><stop stop-color="#8B2788"/><stop offset="1" stop-color="#fff"/></linearGradient><radialGradient id="paint33_radial_11_31788" cx="0" cy="0" r="1" gradientTransform="translate(38.4742 21.2601) scale(0.905237 0.90431)" gradientUnits="userSpaceOnUse"><stop offset=".163" stop-color="#E61C24"/><stop offset=".242" stop-color="#DA1B22"/><stop offset=".387" stop-color="#BA171D"/><stop offset=".58" stop-color="#861015"/><stop offset=".81" stop-color="#3F080A"/><stop offset="1"/></radialGradient><linearGradient id="paint34_linear_11_31788" x1="38.427" x2="39.177" y1="20.743" y2="20.743" gradientUnits="userSpaceOnUse"><stop stop-color="#fff"/><stop offset="1" stop-color="#FFF7C4"/></linearGradient><linearGradient id="paint35_linear_11_31788" x1="36.467" x2="40.643" y1="22.674" y2="22.674" gradientUnits="userSpaceOnUse"><stop stop-color="#D16509"/><stop offset="1" stop-color="#8D2C1B"/></linearGradient><linearGradient id="paint36_linear_11_31788" x1="39.602" x2="40.475" y1="20.399" y2="20.399" gradientUnits="userSpaceOnUse"><stop stop-color="#EBBD38"/><stop offset="1" stop-color="#FFF29E"/></linearGradient><linearGradient id="paint37_linear_11_31788" x1="5.171" x2="5.171" y1="23.749" y2="19.951" gradientUnits="userSpaceOnUse"><stop stop-color="#CA6B34"/><stop offset="1" stop-color="#FFBD2B"/></linearGradient><linearGradient id="paint38_linear_11_31788" x1="5.167" x2="5.167" y1="23.626" y2="20.888" gradientUnits="userSpaceOnUse"><stop stop-color="#F08D1D"/><stop offset="1" stop-color="#8D2C1B"/></linearGradient><linearGradient id="paint39_linear_11_31788" x1="5.16" x2="5.16" y1="24.013" y2="21.805" gradientUnits="userSpaceOnUse"><stop stop-color="#F08D1D"/><stop offset="1" stop-color="#8D2C1B"/></linearGradient><radialGradient id="paint40_radial_11_31788" cx="0" cy="0" r="1" gradientTransform="translate(5.16004 21.5333) scale(1.4523 1.45081)" gradientUnits="userSpaceOnUse"><stop stop-color="#D14B4B"/><stop offset=".166" stop-color="#C84141"/><stop offset=".445" stop-color="#B02727"/><stop offset=".728" stop-color="#910606"/><stop offset=".827" stop-color="#940F0F"/><stop offset=".985" stop-color="#9D2626"/><stop offset="1" stop-color="#9E2929"/></radialGradient><linearGradient id="paint41_linear_11_31788" x1="5.465" x2="5.138" y1="22.776" y2="21.441" gradientUnits="userSpaceOnUse"><stop stop-color="#8B2788"/><stop offset="1" stop-color="#fff"/></linearGradient><radialGradient id="paint42_radial_11_31788" cx="0" cy="0" r="1" gradientTransform="translate(5.08987 21.2601) scale(0.905235 0.90431)" gradientUnits="userSpaceOnUse"><stop offset=".163" stop-color="#E61C24"/><stop offset=".242" stop-color="#DA1B22"/><stop offset=".387" stop-color="#BA171D"/><stop offset=".58" stop-color="#861015"/><stop offset=".81" stop-color="#3F080A"/><stop offset="1"/></radialGradient><linearGradient id="paint43_linear_11_31788" x1="5.043" x2="5.793" y1="20.743" y2="20.743" gradientUnits="userSpaceOnUse"><stop stop-color="#fff"/><stop offset="1" stop-color="#FFF7C4"/></linearGradient><linearGradient id="paint44_linear_11_31788" x1="3.083" x2="7.259" y1="22.674" y2="22.674" gradientUnits="userSpaceOnUse"><stop stop-color="#D16509"/><stop offset="1" stop-color="#8D2C1B"/></linearGradient><linearGradient id="paint45_linear_11_31788" x1="6.217" x2="7.091" y1="20.399" y2="20.399" gradientUnits="userSpaceOnUse"><stop stop-color="#EBBD38"/><stop offset="1" stop-color="#FFF29E"/></linearGradient><linearGradient id="paint46_linear_11_31788" x1="12.786" x2="41.819" y1="22.225" y2="22.225" gradientUnits="userSpaceOnUse"><stop stop-color="#FEFFBC"/><stop offset="1" stop-color="#FFC671"/></linearGradient><clipPath id="clip0_11_31788"><rect width="40" height="35.949" fill="#fff" transform="translate(2 4)"/></clipPath></defs></svg>