<svg width="44" height="45" viewBox="0 0 44 45" fill="none" xmlns="http://www.w3.org/2000/svg">
<g filter="url(#filter0_bf_11_40326)">
<circle cx="22" cy="22.1055" r="18" fill="black" fill-opacity="0.5"/>
</g>
<g clip-path="url(#clip0_11_40326)">
<path d="M22.8063 4.10547L23.1442 5.13765C27.2052 5.43652 30.9836 7.16051 33.8921 10.0661C37.1054 13.2761 38.8727 17.5405 38.8727 22.0788C38.8727 26.6171 37.1054 30.8842 33.8921 34.0942C30.978 37.0053 27.1913 38.7293 23.1221 39.0254L22.8035 40.0548C32.3187 39.5678 39.8838 31.706 39.8838 22.0815C39.8838 12.4543 32.3215 4.59251 22.8063 4.10547ZM20.5403 39.0199C16.4988 38.7099 12.7398 36.9887 9.84228 34.0942C6.62898 30.8842 4.86167 26.6171 4.86167 22.0788C4.86167 17.5405 6.62898 13.2734 9.84228 10.0661C12.737 7.17435 16.4905 5.45312 20.5293 5.14042L20.8534 4.10824C11.3741 4.63678 3.85059 12.4792 3.85059 22.0788C3.85059 31.6867 11.3852 39.5346 20.8727 40.0493L20.87 40.0465L20.5403 39.0199Z" fill="url(#paint0_linear_11_40326)"/>
<path opacity="0.5" d="M22.9588 39.5539L22.8037 40.052C30.6347 39.6507 37.1472 34.2546 39.2054 26.9878C36.9948 33.9613 30.6153 39.1056 22.9588 39.5539ZM20.7123 39.5483C13.0862 39.0751 6.73721 33.9419 4.53223 26.9878C6.58486 34.2352 13.0696 39.6258 20.8757 40.0492L20.8729 40.0465L20.7123 39.5483Z" fill="url(#paint1_linear_11_40326)"/>
<path d="M34.2357 9.72553C31.1969 6.68986 27.2357 4.90775 22.9836 4.64209L23.147 5.13466C27.208 5.43352 30.9864 7.15752 33.895 10.0631C37.1083 13.2731 38.8756 17.5375 38.8756 22.0758C38.8756 26.6141 37.1083 30.8812 33.895 34.0912C30.9808 37.0023 27.1941 38.7263 23.1249 39.0224L22.9614 39.551C27.2218 39.2853 31.1914 37.4755 34.2357 34.4343C37.5376 31.1358 39.3576 26.7469 39.3576 22.0785C39.3576 17.413 37.5376 13.0241 34.2357 9.72553ZM20.5404 39.0197C16.4961 38.7097 12.7371 36.9885 9.83956 34.094C6.62626 30.8839 4.85895 26.6168 4.85895 22.0785C4.85895 17.5402 6.62626 13.2731 9.83956 10.0659C12.7343 7.17413 16.4878 5.45289 20.5265 5.1402L20.6817 4.64762C16.4573 4.92712 12.5238 6.70646 9.50161 9.72553C6.1969 13.0241 4.37695 17.413 4.37695 22.0785C4.37695 26.7441 6.1969 31.133 9.49884 34.4343C12.5265 37.4589 16.4739 39.2687 20.7094 39.5482L20.5404 39.0197Z" fill="url(#paint2_linear_11_40326)"/>
<path opacity="0.5" d="M22.8063 4.10547L22.9836 4.64232C30.629 5.09614 36.9974 10.2073 39.208 17.1697C37.147 9.90286 30.6373 4.50672 22.8063 4.10547ZM4.5293 17.1697C6.73151 10.2266 13.0695 5.12658 20.6844 4.64508L20.8534 4.10824C13.0556 4.54269 6.58193 9.92777 4.5293 17.1697Z" fill="url(#paint3_linear_11_40326)"/>
<path d="M33.4374 10.5225C30.6452 7.73037 27.0164 6.07279 23.1189 5.78223L22.8031 6.76183C26.5538 6.98598 30.0496 8.55225 32.7311 11.2282C35.6313 14.1255 37.2297 17.9803 37.2297 22.0786C37.2297 26.1796 35.6313 30.0317 32.7311 32.929C30.0552 35.6021 26.5676 37.1684 22.8225 37.3953L23.1299 38.3749C27.0247 38.0816 30.648 36.424 33.4402 33.6346C36.5288 30.5464 38.2324 26.4425 38.2324 22.0758C38.2297 17.7118 36.5288 13.608 33.4374 10.5225ZM20.8696 6.7646L20.551 5.78499C16.6757 6.08939 13.0745 7.74421 10.2962 10.5198C7.20474 13.608 5.50391 17.7118 5.50391 22.0786C5.50391 26.4453 7.20751 30.5491 10.2962 33.6374C13.0745 36.4129 16.6729 38.065 20.5455 38.3722L20.8668 37.3925C17.1383 37.1546 13.6673 35.5911 11.0025 32.929C8.10224 30.0317 6.50391 26.1769 6.50391 22.0786C6.50391 17.9803 8.10224 14.1255 11.0025 11.2282C13.6701 8.56608 17.141 7.00258 20.8696 6.7646Z" fill="url(#paint4_linear_11_40326)"/>
<path opacity="0.5" d="M33.6671 33.1059C30.7751 35.9396 27.0078 37.6027 22.9635 37.8573L23.1269 38.3775C27.0217 38.0842 30.6449 36.4266 33.4372 33.6372C34.6699 32.4058 35.681 31.0111 36.4538 29.5029C35.7087 30.8063 34.7779 32.0184 33.6671 33.1059ZM7.2793 29.5029C8.04938 31.0111 9.06323 32.4058 10.2959 33.6372C13.0743 36.4128 16.6726 38.0648 20.5452 38.372L20.7142 37.8545C16.6893 37.5888 12.9441 35.9257 10.0632 33.1059C8.95797 32.0184 8.02445 30.8063 7.2793 29.5029Z" fill="url(#paint5_linear_11_40326)"/>
<path opacity="0.5" d="M33.4372 10.5225C30.6449 7.73037 27.0161 6.07279 23.1186 5.78223L22.9497 6.30247C26.9995 6.55429 30.7724 8.22018 33.6671 11.0566C34.7751 12.1414 35.7087 13.3534 36.4538 14.6596C35.6837 13.1486 34.6699 11.754 33.4372 10.5225ZM10.2959 10.5225C9.06323 11.754 8.04938 13.1486 7.2793 14.6568C8.02445 13.3534 8.95797 12.1414 10.066 11.0538C12.9469 8.23401 16.6948 6.57089 20.7197 6.30524L20.5508 5.78776C16.6782 6.09216 13.0743 7.74698 10.2959 10.5225Z" fill="url(#paint6_linear_11_40326)"/>
<path d="M33.0689 10.8907C30.3348 8.1594 26.7753 6.54886 22.9526 6.2915L22.803 6.76194C26.5537 6.98608 30.0495 8.55235 32.7309 11.2283C35.6312 14.1256 37.2296 17.9804 37.2296 22.0787C37.2296 26.1797 35.6312 30.0318 32.7309 32.9291C30.055 35.6022 26.5675 37.1685 22.8224 37.3954L22.9692 37.8658C26.7863 37.6057 30.3376 35.9979 33.0689 33.2694C36.0606 30.2808 37.7088 26.307 37.7088 22.0814C37.706 17.8531 36.0606 13.8793 33.0689 10.8907ZM20.8695 6.7647L20.7171 6.29704C16.9193 6.56546 13.3847 8.17324 10.6672 10.8907C7.67554 13.8793 6.02734 17.8531 6.02734 22.0787C6.02734 26.3043 7.67554 30.278 10.6672 33.2667C13.3847 35.9813 16.9193 37.5891 20.7143 37.8603L20.8667 37.3926C17.1381 37.1547 13.6672 35.5912 11.0024 32.9291C8.10214 30.0318 6.5038 26.177 6.5038 22.0787C6.5038 17.9804 8.10214 14.1256 11.0024 11.2283C13.67 8.56618 17.1409 7.00269 20.8695 6.7647Z" fill="url(#paint7_linear_11_40326)"/>
<path d="M20.6983 4.62012L22.9725 6.23619L22.8035 6.76197L20.5293 5.14036L20.6983 4.62012Z" fill="url(#paint8_linear_11_40326)"/>
<path d="M23.1193 5.77982L22.9531 6.30006L20.6982 4.62034L20.8534 4.1084L23.1193 5.77982Z" fill="url(#paint9_linear_11_40326)"/>
<path d="M22.9725 4.62012L20.6982 6.23619L20.87 6.76474L23.1442 5.13759L22.9725 4.62012Z" fill="url(#paint10_linear_11_40326)"/>
<path d="M20.5518 5.78519L20.6986 6.23625L22.9728 4.62018L22.8066 4.10547L20.5518 5.78519Z" fill="url(#paint11_linear_11_40326)"/>
<path d="M22.9782 4.64209L20.7178 6.29691L20.8701 6.76457L23.1444 5.13743L22.9782 4.64209Z" fill="url(#paint12_linear_11_40326)"/>
<path d="M20.5518 5.78519L20.718 6.29713L22.9784 4.64232L22.8066 4.10547L20.5518 5.78519Z" fill="url(#paint13_linear_11_40326)"/>
<path opacity="0.8" d="M21.9808 4.71973C21.9808 4.71973 22.039 4.9079 22.3437 5.11821C22.3437 5.11821 22.5016 5.19293 22.978 5.25381L21.1082 6.59592C21.1082 6.59592 21.3049 6.09228 21.2716 5.88751C21.2716 5.88751 20.9531 5.7104 20.6982 5.6772L21.9808 4.71973Z" fill="url(#paint14_linear_11_40326)"/>
<path d="M20.69 4.64795L22.9531 6.2917L22.8035 6.76213L20.5293 5.14052L20.69 4.64795Z" fill="url(#paint15_linear_11_40326)"/>
<path d="M23.1198 5.77982L22.9536 6.29176L20.6904 4.64801L20.8539 4.1084L23.1198 5.77982Z" fill="url(#paint16_linear_11_40326)"/>
<path d="M22.9635 37.8657L20.7031 39.5233L20.8721 40.0491L23.1297 38.3777L22.9635 37.8657Z" fill="url(#paint17_linear_11_40326)"/>
<path d="M20.5566 39.0666L20.7228 39.5868L22.9777 37.9071L22.8226 37.3979L20.5566 39.0666Z" fill="url(#paint18_linear_11_40326)"/>
<path d="M20.7176 37.8628L22.978 39.5231L22.8063 40.0517L20.5459 38.372L20.7176 37.8628Z" fill="url(#paint19_linear_11_40326)"/>
<path d="M23.1222 39.0723L22.9782 39.5234L20.7178 37.863L20.8701 37.3926L23.1222 39.0723Z" fill="url(#paint20_linear_11_40326)"/>
<path d="M20.7176 37.8628L22.9697 39.5536L22.8063 40.0517L20.5459 38.372L20.7176 37.8628Z" fill="url(#paint21_linear_11_40326)"/>
<path d="M23.1222 39.0253L22.9699 39.5538L20.7178 37.863L20.8701 37.3926L23.1222 39.0253Z" fill="url(#paint22_linear_11_40326)"/>
<path opacity="0.8" d="M21.7089 38.0015C21.7089 38.0015 21.6369 38.1979 21.4015 38.3889C21.4015 38.3889 21.2159 38.4581 20.7422 38.5189L22.299 39.6757C22.299 39.6757 22.3876 39.3547 22.4209 39.1499C22.4209 39.1499 22.7422 38.97 22.997 38.934L21.7089 38.0015Z" fill="url(#paint23_linear_11_40326)"/>
<path d="M22.964 37.8657L20.7119 39.5482L20.8726 40.0491L23.1302 38.3777L22.964 37.8657Z" fill="url(#paint24_linear_11_40326)"/>
<path d="M20.54 39.0196L20.7118 39.5481L22.9639 37.8656L22.8226 37.3979L20.54 39.0196Z" fill="url(#paint25_linear_11_40326)"/>
<path opacity="0.8" d="M3.98876 24.4253L4.46522 24.0185L5.0691 24.7435L4.86134 23.1551L5.50677 23.0887C5.50677 23.0887 5.63973 24.2842 5.72561 24.7629L6.13558 23.9244L6.63696 24.0905C6.63696 24.0905 6.4763 23.0361 6.50954 21.8268L3.70898 21.6387L3.98876 24.4253Z" fill="url(#paint26_linear_11_40326)"/>
<path opacity="0.8" d="M39.7398 24.3949L39.2717 23.9964L38.69 24.6079L38.8755 23.0915L38.2329 23.0693C38.2329 23.0693 38.0999 24.2648 38.0141 24.7435L37.6041 23.9051L37.1055 24.0323C37.1055 24.0323 37.2634 23.014 37.2301 21.8047L40.0307 21.6138L39.7398 24.3949Z" fill="url(#paint27_linear_11_40326)"/>
<path d="M36.7777 20.6924C35.9439 22.0926 36.9106 23.5814 38.2181 23.8139C39.5284 24.0463 41.0436 22.8315 40.545 21.1379C40.0464 19.4444 37.509 19.4637 36.7777 20.6924Z" fill="url(#paint28_linear_11_40326)"/>
<path opacity="0.7" d="M37.6508 20.3272C36.9251 20.7008 36.6453 21.9682 37.2797 22.7541C37.914 23.54 39.3988 23.6313 39.9971 22.5299C40.6453 21.3456 39.468 19.3919 37.6508 20.3272Z" fill="url(#paint29_linear_11_40326)"/>
<path opacity="0.8" d="M40.0379 21.6942C40.0379 22.5188 39.3703 23.1857 38.5448 23.1857C37.7193 23.1857 37.0518 22.5188 37.0518 21.6942C37.0518 20.8696 37.7193 20.2026 38.5448 20.2026C39.3703 20.1999 40.0379 20.8696 40.0379 21.6942Z" fill="url(#paint30_linear_11_40326)"/>
<path d="M39.9968 21.639C39.9968 22.4415 39.3458 23.089 38.5453 23.089C37.7419 23.089 37.0938 22.4387 37.0938 21.639C37.0938 20.8393 37.7447 20.189 38.5453 20.189C39.3458 20.189 39.9968 20.8365 39.9968 21.639Z" fill="url(#paint31_radial_11_40326)"/>
<path opacity="0.5" d="M39.9968 21.6387C39.9968 22.4412 39.3458 23.0887 38.5453 23.0887C37.7419 23.0887 37.0938 22.4384 37.0938 21.6387C37.0938 21.2485 37.2489 20.8943 37.4982 20.6341C37.3735 20.8279 37.3015 21.0603 37.3015 21.3121C37.3015 21.9873 37.8278 22.5353 38.476 22.5353C39.1242 22.5353 39.6505 21.9873 39.6505 21.3121C39.6505 20.9109 39.4649 20.5567 39.1796 20.3325C39.6616 20.5677 39.9968 21.0631 39.9968 21.6387Z" fill="url(#paint32_linear_11_40326)"/>
<path opacity="0.3" d="M39.379 21.3649C39.379 21.863 38.9746 22.2697 38.4732 22.2697C37.9746 22.2697 37.5674 21.8657 37.5674 21.3649C37.5674 20.8667 37.9718 20.46 38.4732 20.46C38.9746 20.46 39.379 20.8667 39.379 21.3649Z" fill="url(#paint33_radial_11_40326)"/>
<path d="M38.4262 20.878C38.4096 21.033 38.8418 21.2101 38.9747 21.2101C38.9747 21.2101 39.26 20.9361 39.152 20.676C39.152 20.676 38.8362 20.4269 38.5537 20.4989C38.5564 20.4989 38.4512 20.6649 38.4262 20.878Z" fill="url(#paint34_linear_11_40326)"/>
<path d="M38.2183 23.8167C37.2294 23.6423 36.4372 22.7513 36.4676 21.7218C36.6089 22.8979 37.4649 23.9246 39.1768 23.5178C39.3845 23.468 40.5452 22.9311 40.6422 21.7163C40.692 23.0999 39.3735 24.0214 38.2183 23.8167Z" fill="url(#paint35_linear_11_40326)"/>
<path opacity="0.5" d="M40.4762 20.9415C40.4042 21.1158 39.4928 20.2303 39.6147 20.0449C39.9859 20.2276 40.2989 20.5237 40.4762 20.9415Z" fill="url(#paint36_linear_11_40326)"/>
<path d="M3.3929 20.6924C2.55911 22.0926 3.52587 23.5814 4.83335 23.8139C6.1436 24.0463 7.65883 22.8315 7.16022 21.1379C6.6616 19.4444 4.12698 19.4637 3.3929 20.6924Z" fill="url(#paint37_linear_11_40326)"/>
<path opacity="0.7" d="M4.26608 20.3272C3.54032 20.7008 3.26054 21.9682 3.89489 22.7541C4.52924 23.54 6.014 23.6313 6.61234 22.5299C7.26054 21.3456 6.08326 19.3919 4.26608 20.3272Z" fill="url(#paint38_linear_11_40326)"/>
<path opacity="0.8" d="M5.1601 23.2438C6.00307 23.2438 6.68642 22.5612 6.68642 21.7191C6.68642 20.877 6.00307 20.1943 5.1601 20.1943C4.31714 20.1943 3.63379 20.877 3.63379 21.7191C3.63379 22.5612 4.31714 23.2438 5.1601 23.2438Z" fill="url(#paint39_linear_11_40326)"/>
<path d="M6.61203 21.639C6.61203 22.4415 5.96106 23.089 5.16051 23.089C4.35995 23.089 3.70898 22.4387 3.70898 21.639C3.70898 20.8393 4.35995 20.189 5.16051 20.189C5.96106 20.189 6.61203 20.8365 6.61203 21.639Z" fill="url(#paint40_radial_11_40326)"/>
<path opacity="0.5" d="M6.61203 21.6387C6.61203 22.4412 5.96106 23.0887 5.16051 23.0887C4.35718 23.0887 3.70898 22.4384 3.70898 21.6387C3.70898 21.2485 3.86411 20.8943 4.11342 20.6341C3.98876 20.8279 3.91674 21.0603 3.91674 21.3121C3.91674 21.9873 4.44306 22.5353 5.09126 22.5353C5.73946 22.5353 6.26577 21.9873 6.26577 21.3121C6.26577 20.9109 6.08018 20.5567 5.79486 20.3325C6.27685 20.5677 6.61203 21.0631 6.61203 21.6387Z" fill="url(#paint41_linear_11_40326)"/>
<path opacity="0.3" d="M5.99425 21.3649C5.99425 21.863 5.58982 22.2697 5.08843 22.2697C4.58705 22.2697 4.18262 21.8657 4.18262 21.3649C4.18262 20.8667 4.58705 20.46 5.08843 20.46C5.58982 20.46 5.99425 20.8667 5.99425 21.3649Z" fill="url(#paint42_radial_11_40326)"/>
<path d="M5.04441 20.878C5.02779 21.033 5.45992 21.2101 5.59289 21.2101C5.59289 21.2101 5.87821 20.9361 5.77017 20.676C5.77017 20.676 5.45438 20.4269 5.17184 20.4989C5.17184 20.4989 5.06657 20.6649 5.04441 20.878Z" fill="url(#paint43_linear_11_40326)"/>
<path d="M4.83357 23.8167C3.84465 23.6423 3.05241 22.7513 3.08288 21.7218C3.22416 22.8979 4.08011 23.9246 5.79202 23.5178C5.99978 23.468 7.16044 22.9311 7.2574 21.7163C7.30726 23.0999 5.9887 24.0214 4.83357 23.8167Z" fill="url(#paint44_linear_11_40326)"/>
<path opacity="0.5" d="M7.09145 20.9415C7.01943 21.1158 6.10807 20.2303 6.22995 20.0449C6.60114 20.2276 6.91416 20.5237 7.09145 20.9415Z" fill="url(#paint45_linear_11_40326)"/>
<g clip-path="url(#clip1_11_40326)">
<mask id="mask0_11_40326" style="mask-type:luminance" maskUnits="userSpaceOnUse" x="12" y="11" width="21" height="22">
<path d="M12 11.8325H32.4545V32.2871H12V11.8325Z" fill="white"/>
</mask>
<g mask="url(#mask0_11_40326)">
<path d="M28.108 12.791H31.2448L24.3925 20.6426L32.4545 31.3287H26.1429L21.1958 24.849L15.5416 31.3287H12.4018L19.7304 22.9277L12 12.7925H18.4724L22.9373 18.7141L28.108 12.791ZM27.0049 29.4469H28.7435L17.5227 14.5749H15.6584L27.0049 29.4469Z" fill="url(#paint46_linear_11_40326)"/>
</g>
</g>
</g>
<defs>
<filter id="filter0_bf_11_40326" x="0" y="0.105469" width="44" height="44" filterUnits="userSpaceOnUse" color-interpolation-filters="sRGB">
<feFlood flood-opacity="0" result="BackgroundImageFix"/>
<feGaussianBlur in="BackgroundImageFix" stdDeviation="2"/>
<feComposite in2="SourceAlpha" operator="in" result="effect1_backgroundBlur_11_40326"/>
<feBlend mode="normal" in="SourceGraphic" in2="effect1_backgroundBlur_11_40326" result="shape"/>
<feGaussianBlur stdDeviation="2" result="effect2_foregroundBlur_11_40326"/>
</filter>
<linearGradient id="paint0_linear_11_40326" x1="21.8677" y1="40.0539" x2="21.8677" y2="4.10558" gradientUnits="userSpaceOnUse">
<stop stop-color="#CA6B34"/>
<stop offset="0.7401" stop-color="#FFBD2B"/>
<stop offset="1" stop-color="#FFA933"/>
</linearGradient>
<linearGradient id="paint1_linear_11_40326" x1="21.8678" y1="26.9899" x2="21.8678" y2="40.0538" gradientUnits="userSpaceOnUse">
<stop stop-color="#F08D1D"/>
<stop offset="1" stop-color="#8D2C1B"/>
</linearGradient>
<linearGradient id="paint2_linear_11_40326" x1="21.8677" y1="4.64248" x2="21.8677" y2="39.5518" gradientUnits="userSpaceOnUse">
<stop stop-color="#CA6B34"/>
<stop offset="0.1742" stop-color="#CC6E34"/>
<stop offset="0.2919" stop-color="#D27733"/>
<stop offset="0.3931" stop-color="#DB8631"/>
<stop offset="0.4848" stop-color="#E99B2F"/>
<stop offset="0.5694" stop-color="#FBB72C"/>
<stop offset="0.5853" stop-color="#FFBD2B"/>
<stop offset="1" stop-color="#FFA933"/>
</linearGradient>
<linearGradient id="paint3_linear_11_40326" x1="21.8677" y1="17.1695" x2="21.8677" y2="4.10558" gradientUnits="userSpaceOnUse">
<stop stop-color="#EBBD38"/>
<stop offset="1" stop-color="#FFF29E"/>
</linearGradient>
<linearGradient id="paint4_linear_11_40326" x1="21.8672" y1="38.3777" x2="21.8672" y2="5.78093" gradientUnits="userSpaceOnUse">
<stop stop-color="#CA6B34"/>
<stop offset="0.7401" stop-color="#FFBD2B"/>
<stop offset="1" stop-color="#FFA933"/>
</linearGradient>
<linearGradient id="paint5_linear_11_40326" x1="21.8672" y1="29.5029" x2="21.8672" y2="38.3775" gradientUnits="userSpaceOnUse">
<stop stop-color="#F08D1D"/>
<stop offset="1" stop-color="#8D2C1B"/>
</linearGradient>
<linearGradient id="paint6_linear_11_40326" x1="21.8672" y1="14.6559" x2="21.8672" y2="5.78087" gradientUnits="userSpaceOnUse">
<stop stop-color="#EBBD38"/>
<stop offset="1" stop-color="#FFF29E"/>
</linearGradient>
<linearGradient id="paint7_linear_11_40326" x1="21.8671" y1="6.29267" x2="21.8671" y2="37.8657" gradientUnits="userSpaceOnUse">
<stop stop-color="#CA6B34"/>
<stop offset="0.1742" stop-color="#CC6E34"/>
<stop offset="0.2919" stop-color="#D27733"/>
<stop offset="0.3931" stop-color="#DB8631"/>
<stop offset="0.4848" stop-color="#E99B2F"/>
<stop offset="0.5694" stop-color="#FBB72C"/>
<stop offset="0.5853" stop-color="#FFBD2B"/>
<stop offset="1" stop-color="#FFA933"/>
</linearGradient>
<linearGradient id="paint8_linear_11_40326" x1="21.2345" y1="6.69448" x2="21.6179" y2="5.94703" gradientUnits="userSpaceOnUse">
<stop stop-color="#D16509"/>
<stop offset="1" stop-color="#8D2C1B"/>
</linearGradient>
<linearGradient id="paint9_linear_11_40326" x1="22.0475" y1="5.18846" x2="24.8779" y2="4.86231" gradientUnits="userSpaceOnUse">
<stop stop-color="#CA6B34"/>
<stop offset="1" stop-color="#FFBD2B"/>
</linearGradient>
<linearGradient id="paint10_linear_11_40326" x1="20.2669" y1="7.03319" x2="23.8358" y2="4.12026" gradientUnits="userSpaceOnUse">
<stop stop-color="#D16509"/>
<stop offset="1" stop-color="#8D2C1B"/>
</linearGradient>
<linearGradient id="paint11_linear_11_40326" x1="21.9863" y1="5.60554" x2="21.5688" y2="4.82939" gradientUnits="userSpaceOnUse">
<stop stop-color="#E39330"/>
<stop offset="1" stop-color="#FFCD61"/>
</linearGradient>
<linearGradient id="paint12_linear_11_40326" x1="21.7372" y1="5.30717" x2="22.17" y2="6.22477" gradientUnits="userSpaceOnUse">
<stop stop-color="#D16509"/>
<stop offset="1" stop-color="#8D2C1B"/>
</linearGradient>
<linearGradient id="paint13_linear_11_40326" x1="21.7658" y1="6.31263" x2="21.7658" y2="4.1211" gradientUnits="userSpaceOnUse">
<stop stop-color="#CA6B34"/>
<stop offset="1" stop-color="#FFBD2B"/>
</linearGradient>
<linearGradient id="paint14_linear_11_40326" x1="22.9784" y1="5.65832" x2="20.6969" y2="5.65832" gradientUnits="userSpaceOnUse">
<stop stop-color="#F08D1D"/>
<stop offset="1" stop-color="#8D2C1B"/>
</linearGradient>
<linearGradient id="paint15_linear_11_40326" x1="23.3834" y1="7.05371" x2="19.8274" y2="4.15135" gradientUnits="userSpaceOnUse">
<stop stop-color="#D16509"/>
<stop offset="1" stop-color="#8D2C1B"/>
</linearGradient>
<linearGradient id="paint16_linear_11_40326" x1="21.9382" y1="6.06471" x2="21.9043" y2="5.19842" gradientUnits="userSpaceOnUse">
<stop stop-color="#E39330"/>
<stop offset="1" stop-color="#FFCD61"/>
</linearGradient>
<linearGradient id="paint17_linear_11_40326" x1="22.457" y1="40.006" x2="22.0565" y2="39.2252" gradientUnits="userSpaceOnUse">
<stop stop-color="#D16509"/>
<stop offset="1" stop-color="#8D2C1B"/>
</linearGradient>
<linearGradient id="paint18_linear_11_40326" x1="21.6274" y1="38.4754" x2="18.7971" y2="38.1492" gradientUnits="userSpaceOnUse">
<stop stop-color="#CA6B34"/>
<stop offset="1" stop-color="#FFBD2B"/>
</linearGradient>
<linearGradient id="paint19_linear_11_40326" x1="23.427" y1="40.303" x2="19.8383" y2="37.3739" gradientUnits="userSpaceOnUse">
<stop stop-color="#D16509"/>
<stop offset="1" stop-color="#8D2C1B"/>
</linearGradient>
<linearGradient id="paint20_linear_11_40326" x1="21.6893" y1="38.8928" x2="22.1068" y2="38.1166" gradientUnits="userSpaceOnUse">
<stop stop-color="#E39330"/>
<stop offset="1" stop-color="#FFCD61"/>
</linearGradient>
<linearGradient id="paint21_linear_11_40326" x1="21.2176" y1="40.0162" x2="21.622" y2="39.2278" gradientUnits="userSpaceOnUse">
<stop stop-color="#D16509"/>
<stop offset="1" stop-color="#8D2C1B"/>
</linearGradient>
<linearGradient id="paint22_linear_11_40326" x1="21.9211" y1="39.5684" x2="21.9211" y2="37.4081" gradientUnits="userSpaceOnUse">
<stop stop-color="#CA6B34"/>
<stop offset="1" stop-color="#FFBD2B"/>
</linearGradient>
<linearGradient id="paint23_linear_11_40326" x1="20.7406" y1="38.8375" x2="22.9973" y2="38.8375" gradientUnits="userSpaceOnUse">
<stop stop-color="#F08D1D"/>
<stop offset="1" stop-color="#8D2C1B"/>
</linearGradient>
<linearGradient id="paint24_linear_11_40326" x1="20.2623" y1="40.3138" x2="23.8507" y2="37.3849" gradientUnits="userSpaceOnUse">
<stop stop-color="#D16509"/>
<stop offset="1" stop-color="#8D2C1B"/>
</linearGradient>
<linearGradient id="paint25_linear_11_40326" x1="21.7178" y1="39.3246" x2="21.7513" y2="38.4697" gradientUnits="userSpaceOnUse">
<stop stop-color="#E39330"/>
<stop offset="1" stop-color="#FFCD61"/>
</linearGradient>
<linearGradient id="paint26_linear_11_40326" x1="5.17156" y1="21.3765" x2="5.17156" y2="24.1453" gradientUnits="userSpaceOnUse">
<stop stop-color="#F08D1D"/>
<stop offset="1" stop-color="#8D2C1B"/>
</linearGradient>
<linearGradient id="paint27_linear_11_40326" x1="38.5672" y1="21.3765" x2="38.5672" y2="24.1453" gradientUnits="userSpaceOnUse">
<stop stop-color="#F08D1D"/>
<stop offset="1" stop-color="#8D2C1B"/>
</linearGradient>
<linearGradient id="paint28_linear_11_40326" x1="38.5553" y1="23.8541" x2="38.5553" y2="20.0565" gradientUnits="userSpaceOnUse">
<stop stop-color="#CA6B34"/>
<stop offset="1" stop-color="#FFBD2B"/>
</linearGradient>
<linearGradient id="paint29_linear_11_40326" x1="38.5513" y1="23.7316" x2="38.5513" y2="20.9931" gradientUnits="userSpaceOnUse">
<stop stop-color="#F08D1D"/>
<stop offset="1" stop-color="#8D2C1B"/>
</linearGradient>
<linearGradient id="paint30_linear_11_40326" x1="38.5439" y1="23.9229" x2="38.5439" y2="21.9592" gradientUnits="userSpaceOnUse">
<stop stop-color="#F08D1D"/>
<stop offset="0.2148" stop-color="#D4721C"/>
<stop offset="0.5567" stop-color="#AE4C1C"/>
<stop offset="0.8305" stop-color="#96351B"/>
<stop offset="1" stop-color="#8D2C1B"/>
</linearGradient>
<radialGradient id="paint31_radial_11_40326" cx="0" cy="0" r="1" gradientUnits="userSpaceOnUse" gradientTransform="translate(38.5444 21.6388) scale(1.4523 1.45081)">
<stop stop-color="#D14B4B"/>
<stop offset="0.1657" stop-color="#C84141"/>
<stop offset="0.4446" stop-color="#B02727"/>
<stop offset="0.7282" stop-color="#910606"/>
<stop offset="0.8267" stop-color="#940F0F"/>
<stop offset="0.9854" stop-color="#9D2626"/>
<stop offset="1" stop-color="#9E2929"/>
</radialGradient>
<linearGradient id="paint32_linear_11_40326" x1="38.5444" y1="22.9962" x2="38.5444" y2="21.2703" gradientUnits="userSpaceOnUse">
<stop stop-color="#8B2788"/>
<stop offset="1" stop-color="white"/>
</linearGradient>
<radialGradient id="paint33_radial_11_40326" cx="0" cy="0" r="1" gradientUnits="userSpaceOnUse" gradientTransform="translate(38.4742 21.3655) scale(0.905237 0.90431)">
<stop offset="0.1627" stop-color="#E61C24"/>
<stop offset="0.2425" stop-color="#DA1B22"/>
<stop offset="0.387" stop-color="#BA171D"/>
<stop offset="0.5797" stop-color="#861015"/>
<stop offset="0.8104" stop-color="#3F080A"/>
<stop offset="1"/>
</radialGradient>
<linearGradient id="paint34_linear_11_40326" x1="38.4267" y1="20.8481" x2="39.1774" y2="20.8481" gradientUnits="userSpaceOnUse">
<stop stop-color="white"/>
<stop offset="1" stop-color="#FFF7C4"/>
</linearGradient>
<linearGradient id="paint35_linear_11_40326" x1="36.4673" y1="22.78" x2="40.6434" y2="22.78" gradientUnits="userSpaceOnUse">
<stop stop-color="#D16509"/>
<stop offset="1" stop-color="#8D2C1B"/>
</linearGradient>
<linearGradient id="paint36_linear_11_40326" x1="39.6015" y1="20.5042" x2="40.4752" y2="20.5042" gradientUnits="userSpaceOnUse">
<stop stop-color="#EBBD38"/>
<stop offset="1" stop-color="#FFF29E"/>
</linearGradient>
<linearGradient id="paint37_linear_11_40326" x1="5.17094" y1="23.8541" x2="5.17094" y2="20.0565" gradientUnits="userSpaceOnUse">
<stop stop-color="#CA6B34"/>
<stop offset="1" stop-color="#FFBD2B"/>
</linearGradient>
<linearGradient id="paint38_linear_11_40326" x1="5.167" y1="23.7316" x2="5.167" y2="20.9931" gradientUnits="userSpaceOnUse">
<stop stop-color="#F08D1D"/>
<stop offset="1" stop-color="#8D2C1B"/>
</linearGradient>
<linearGradient id="paint39_linear_11_40326" x1="5.15963" y1="24.1182" x2="5.15963" y2="21.9109" gradientUnits="userSpaceOnUse">
<stop stop-color="#F08D1D"/>
<stop offset="1" stop-color="#8D2C1B"/>
</linearGradient>
<radialGradient id="paint40_radial_11_40326" cx="0" cy="0" r="1" gradientUnits="userSpaceOnUse" gradientTransform="translate(5.16004 21.6388) scale(1.4523 1.45081)">
<stop stop-color="#D14B4B"/>
<stop offset="0.1657" stop-color="#C84141"/>
<stop offset="0.4446" stop-color="#B02727"/>
<stop offset="0.7282" stop-color="#910606"/>
<stop offset="0.8267" stop-color="#940F0F"/>
<stop offset="0.9854" stop-color="#9D2626"/>
<stop offset="1" stop-color="#9E2929"/>
</radialGradient>
<linearGradient id="paint41_linear_11_40326" x1="5.46486" y1="22.8817" x2="5.13815" y2="21.5463" gradientUnits="userSpaceOnUse">
<stop stop-color="#8B2788"/>
<stop offset="1" stop-color="white"/>
</linearGradient>
<radialGradient id="paint42_radial_11_40326" cx="0" cy="0" r="1" gradientUnits="userSpaceOnUse" gradientTransform="translate(5.08987 21.3655) scale(0.905235 0.90431)">
<stop offset="0.1627" stop-color="#E61C24"/>
<stop offset="0.2425" stop-color="#DA1B22"/>
<stop offset="0.387" stop-color="#BA171D"/>
<stop offset="0.5797" stop-color="#861015"/>
<stop offset="0.8104" stop-color="#3F080A"/>
<stop offset="1"/>
</radialGradient>
<linearGradient id="paint43_linear_11_40326" x1="5.04256" y1="20.8481" x2="5.79322" y2="20.8481" gradientUnits="userSpaceOnUse">
<stop stop-color="white"/>
<stop offset="1" stop-color="#FFF7C4"/>
</linearGradient>
<linearGradient id="paint44_linear_11_40326" x1="3.08291" y1="22.78" x2="7.25906" y2="22.78" gradientUnits="userSpaceOnUse">
<stop stop-color="#D16509"/>
<stop offset="1" stop-color="#8D2C1B"/>
</linearGradient>
<linearGradient id="paint45_linear_11_40326" x1="6.21721" y1="20.5042" x2="7.09084" y2="20.5042" gradientUnits="userSpaceOnUse">
<stop stop-color="#EBBD38"/>
<stop offset="1" stop-color="#FFF29E"/>
</linearGradient>
<linearGradient id="paint46_linear_11_40326" x1="12" y1="22.0598" x2="43.4593" y2="22.0598" gradientUnits="userSpaceOnUse">
<stop stop-color="#FEFFBC"/>
<stop offset="1" stop-color="#FFC671"/>
</linearGradient>
<clipPath id="clip0_11_40326">
<rect width="40" height="35.9494" fill="white" transform="translate(2 4.10547)"/>
</clipPath>
<clipPath id="clip1_11_40326">
<rect width="20.4545" height="20.4545" fill="white" transform="translate(12 11.8325)"/>
</clipPath>
</defs>
</svg>
