<svg width="48" height="47" viewBox="0 0 48 47" fill="none" xmlns="http://www.w3.org/2000/svg">
<circle cx="23.8867" cy="23.8213" r="19.627" fill="black"/>
<path d="M25.2048 0.854492L25.6367 2.17352C30.8261 2.55543 35.6545 4.75852 39.3714 8.47159C43.4776 12.5736 45.7361 18.023 45.7361 23.8225C45.7361 29.6219 43.4776 35.0748 39.3714 39.1769C35.6474 42.897 30.8084 45.1001 25.6084 45.4785L25.2013 46.794C37.3607 46.1716 47.0281 36.1251 47.0281 23.826C47.0281 11.5234 37.3643 1.47687 25.2048 0.854492ZM22.3092 45.4714C17.1445 45.0754 12.3409 42.8758 8.63819 39.1769C4.53194 35.0748 2.2735 29.6219 2.2735 23.8225C2.2735 18.023 4.53194 12.5701 8.63819 8.47159C12.3374 4.7762 17.1339 2.57665 22.295 2.17705L22.7092 0.858028C10.5957 1.53345 0.981445 11.5552 0.981445 23.8225C0.981445 36.1004 10.6099 46.1292 22.734 46.7869L22.7304 46.7834L22.3092 45.4714Z" fill="url(#paint0_linear_2059_16745)"/>
<path opacity="0.5" d="M25.3998 46.1538L25.2015 46.7904C35.2088 46.2776 43.531 39.3819 46.1611 30.0957C43.3363 39.0071 35.184 45.581 25.3998 46.1538ZM22.5289 46.1468C12.7837 45.5421 4.67028 38.9823 1.85254 30.0957C4.47559 39.3572 12.7624 46.2458 22.7378 46.7868L22.7343 46.7833L22.5289 46.1468Z" fill="url(#paint1_linear_2059_16745)"/>
<path d="M39.8106 8.03712C35.9274 4.15784 30.8653 1.8805 25.4316 1.54102L25.6405 2.17047C30.8299 2.55238 35.6583 4.75547 39.3752 8.46854C43.4815 12.5706 45.7399 18.02 45.7399 23.8194C45.7399 29.6189 43.4815 35.0718 39.3752 39.1739C35.6513 42.894 30.8122 45.0971 25.6122 45.4755L25.4033 46.1509C30.8476 45.8114 35.9203 43.4987 39.8106 39.6123C44.0301 35.3971 46.3558 29.7886 46.3558 23.823C46.3558 17.8608 44.0301 12.2523 39.8106 8.03712ZM22.3095 45.4719C17.1412 45.0759 12.3376 42.8763 8.63493 39.1774C4.52867 35.0753 2.27024 29.6224 2.27024 23.823C2.27024 18.0235 4.52867 12.5706 8.63493 8.47208C12.3341 4.77669 17.1306 2.57714 22.2918 2.17754L22.49 1.54809C17.0917 1.90525 12.0651 4.17906 8.20307 8.03712C3.97999 12.2523 1.6543 17.8608 1.6543 23.823C1.6543 29.7851 3.97999 35.3936 8.19953 39.6123C12.0686 43.4775 17.1129 45.7902 22.5254 46.1473L22.3095 45.4719Z" fill="url(#paint2_linear_2059_16745)"/>
<path opacity="0.5" d="M25.2047 0.854492L25.4313 1.54053C35.2013 2.12047 43.3395 8.65194 46.1643 17.5492C43.5307 8.26295 35.212 1.36725 25.2047 0.854492ZM1.84863 17.5492C4.66283 8.67669 12.7621 2.15937 22.4932 1.54406L22.7091 0.858028C12.7444 1.41322 4.47168 8.29478 1.84863 17.5492Z" fill="url(#paint3_linear_2059_16745)"/>
<path d="M38.7908 9.05468C35.2226 5.48659 30.5854 3.36838 25.6048 2.99707L25.2012 4.24891C29.9942 4.53534 34.4616 6.53686 37.8882 9.95642C41.5944 13.6589 43.6369 18.5849 43.6369 23.8221C43.6369 29.0628 41.5944 33.9853 37.8882 37.6877C34.4686 41.1038 30.0119 43.1053 25.226 43.3953L25.6189 44.6471C30.596 44.2723 35.2262 42.154 38.7944 38.5895C42.7413 34.643 44.9183 29.3988 44.9183 23.8185C44.9148 18.2419 42.7413 12.9976 38.7908 9.05468ZM22.7304 4.25244L22.3233 3.00061C17.371 3.38959 12.7692 5.50428 9.21871 9.05114C5.26821 12.9976 3.09473 18.2419 3.09473 23.8221C3.09473 29.4023 5.27175 34.6466 9.21871 38.593C12.7692 42.1399 17.3675 44.251 22.3162 44.6436L22.7269 43.3917C17.9622 43.0876 13.5267 41.0896 10.1214 37.6877C6.41513 33.9853 4.37262 29.0593 4.37262 23.8221C4.37262 18.5849 6.41513 13.6589 10.1214 9.95642C13.5303 6.55454 17.9657 4.55656 22.7304 4.25244Z" fill="url(#paint4_linear_2059_16745)"/>
<path opacity="0.5" d="M39.0851 37.9148C35.3895 41.5359 30.5752 43.6612 25.407 43.9865L25.6159 44.6513C30.5929 44.2765 35.2231 42.1583 38.7913 38.5937C40.3665 37.0201 41.6586 35.2378 42.6462 33.3105C41.694 34.9761 40.5046 36.525 39.0851 37.9148ZM5.36426 33.3105C6.34834 35.2378 7.64394 37.0201 9.21918 38.5937C12.7697 42.1406 17.368 44.2517 22.3167 44.6442L22.5326 43.983C17.3892 43.6435 12.6033 41.5182 8.92183 37.9148C7.50942 36.525 6.31648 34.9761 5.36426 33.3105Z" fill="url(#paint5_linear_2059_16745)"/>
<path opacity="0.5" d="M38.7913 9.05468C35.2231 5.48659 30.5859 3.36838 25.6053 2.99707L25.3893 3.66189C30.5646 3.98369 35.3859 6.11251 39.0851 9.73717C40.5011 11.1234 41.694 12.6723 42.6462 14.3414C41.6621 12.4106 40.3665 10.6283 38.7913 9.05468ZM9.21918 9.05468C7.64394 10.6283 6.34834 12.4106 5.36426 14.3378C6.31648 12.6723 7.50942 11.1234 8.92537 9.73364C12.6068 6.13019 17.3963 4.0049 22.5397 3.66542L22.3238 3.00414C17.3751 3.39313 12.7697 5.50781 9.21918 9.05468Z" fill="url(#paint6_linear_2059_16745)"/>
<path d="M38.3199 9.52472C34.8261 6.03443 30.2773 3.97633 25.3923 3.64746L25.2012 4.24862C29.9941 4.53506 34.4615 6.53658 37.8881 9.95614C41.5943 13.6586 43.6368 18.5846 43.6368 23.8218C43.6368 29.0625 41.5943 33.985 37.8881 37.6875C34.4685 41.1035 30.0118 43.105 25.2259 43.395L25.4135 43.9961C30.2915 43.6637 34.8296 41.6092 38.3199 38.1224C42.143 34.3033 44.2492 29.2252 44.2492 23.8253C44.2457 18.4219 42.143 13.3439 38.3199 9.52472ZM22.7303 4.25216L22.5356 3.65453C17.6825 3.99755 13.1656 6.05212 9.69296 9.52472C5.8699 13.3439 3.76367 18.4219 3.76367 23.8218C3.76367 29.2217 5.8699 34.2997 9.69296 38.1189C13.1656 41.5879 17.6825 43.6425 22.5321 43.9891L22.7268 43.3914C17.9621 43.0873 13.5266 41.0893 10.1213 37.6875C6.41504 33.985 4.37253 29.059 4.37253 23.8218C4.37253 18.5846 6.41504 13.6586 10.1213 9.95614C13.5302 6.55426 17.9656 4.55628 22.7303 4.25216Z" fill="url(#paint7_linear_2059_16745)"/>
<path d="M22.5109 1.5127L25.4171 3.57787L25.2012 4.24976L22.2949 2.17751L22.5109 1.5127Z" fill="url(#paint8_linear_2059_16745)"/>
<path d="M25.6046 2.9943L25.3922 3.65911L22.5107 1.51261L22.709 0.858398L25.6046 2.9943Z" fill="url(#paint9_linear_2059_16745)"/>
<path d="M25.417 1.51172L22.5107 3.57689L22.7302 4.25232L25.6365 2.173L25.417 1.51172Z" fill="url(#paint10_linear_2059_16745)"/>
<path d="M22.3232 3.001L22.5109 3.57741L25.4171 1.51224L25.2047 0.854492L22.3232 3.001Z" fill="url(#paint11_linear_2059_16745)"/>
<path d="M25.4247 1.54102L22.5361 3.6557L22.7308 4.25332L25.6371 2.17401L25.4247 1.54102Z" fill="url(#paint12_linear_2059_16745)"/>
<path d="M22.3232 3.001L22.5356 3.65521L25.4242 1.54053L25.2047 0.854492L22.3232 3.001Z" fill="url(#paint13_linear_2059_16745)"/>
<path opacity="0.8" d="M24.1497 1.63965C24.1497 1.63965 24.224 1.88011 24.6134 2.14887C24.6134 2.14887 24.8152 2.24435 25.4241 2.32215L23.0346 4.03723C23.0346 4.03723 23.286 3.39363 23.2435 3.13195C23.2435 3.13195 22.8364 2.90563 22.5107 2.86319L24.1497 1.63965Z" fill="url(#paint14_linear_2059_16745)"/>
<path d="M22.5002 1.54785L25.3923 3.64839L25.2012 4.24955L22.2949 2.17731L22.5002 1.54785Z" fill="url(#paint15_linear_2059_16745)"/>
<path d="M25.6045 2.9943L25.3921 3.6485L22.5 1.54797L22.7089 0.858398L25.6045 2.9943Z" fill="url(#paint16_linear_2059_16745)"/>
<path d="M25.4071 43.9971L22.5186 46.1153L22.7345 46.7872L25.6195 44.6513L25.4071 43.9971Z" fill="url(#paint17_linear_2059_16745)"/>
<path d="M22.3311 45.5318L22.5434 46.1966L25.4249 44.0501L25.2267 43.3994L22.3311 45.5318Z" fill="url(#paint18_linear_2059_16745)"/>
<path d="M22.5359 43.9941L25.4244 46.1159L25.2049 46.7913L22.3164 44.6448L22.5359 43.9941Z" fill="url(#paint19_linear_2059_16745)"/>
<path d="M25.6087 45.5391L25.4247 46.1155L22.5361 43.9937L22.7308 43.3926L25.6087 45.5391Z" fill="url(#paint20_linear_2059_16745)"/>
<path d="M22.5359 43.9941L25.4138 46.1548L25.2049 46.7913L22.3164 44.6448L22.5359 43.9941Z" fill="url(#paint21_linear_2059_16745)"/>
<path d="M25.6087 45.479L25.4141 46.1544L22.5361 43.9937L22.7308 43.3926L25.6087 45.479Z" fill="url(#paint22_linear_2059_16745)"/>
<path opacity="0.8" d="M23.8028 44.1709C23.8028 44.1709 23.7108 44.422 23.4099 44.666C23.4099 44.666 23.1727 44.7544 22.5674 44.8322L24.5568 46.3103C24.5568 46.3103 24.6701 45.9001 24.7125 45.6384C24.7125 45.6384 25.1232 45.4086 25.4488 45.3626L23.8028 44.1709Z" fill="url(#paint23_linear_2059_16745)"/>
<path d="M25.4072 43.9971L22.5293 46.1471L22.7346 46.7872L25.6196 44.6513L25.4072 43.9971Z" fill="url(#paint24_linear_2059_16745)"/>
<path d="M22.3096 45.4717L22.529 46.1471L25.407 43.997L25.2264 43.3994L22.3096 45.4717Z" fill="url(#paint25_linear_2059_16745)"/>
<path opacity="0.8" d="M1.15831 26.8208L1.76717 26.3009L2.53886 27.2274L2.27337 25.1976L3.09816 25.1128C3.09816 25.1128 3.26807 26.6404 3.37781 27.2522L3.90171 26.1807L4.54243 26.3929C4.54243 26.3929 4.33712 25.0456 4.37959 23.5002L0.800781 23.2598L1.15831 26.8208Z" fill="url(#paint26_linear_2059_16745)"/>
<path opacity="0.8" d="M46.844 26.7825L46.2457 26.2732L45.5023 27.0547L45.7395 25.1169L44.9183 25.0886C44.9183 25.0886 44.7484 26.6162 44.6386 27.228L44.1147 26.1565L43.4775 26.3192C43.4775 26.3192 43.6793 25.0179 43.6368 23.4725L47.2156 23.2285L46.844 26.7825Z" fill="url(#paint27_linear_2059_16745)"/>
<path d="M43.0603 22.0509C41.9948 23.8402 43.2303 25.7428 44.9011 26.0398C46.5754 26.3368 48.5118 24.7844 47.8746 22.6202C47.2374 20.456 43.9949 20.4808 43.0603 22.0509Z" fill="url(#paint28_linear_2059_16745)"/>
<path opacity="0.7" d="M44.1743 21.5844C43.2469 22.0618 42.8894 23.6814 43.7 24.6857C44.5106 25.69 46.408 25.8067 47.1726 24.3993C48.0009 22.8858 46.4965 20.3892 44.1743 21.5844Z" fill="url(#paint29_linear_2059_16745)"/>
<path opacity="0.8" d="M47.2261 23.3309C47.2261 24.3847 46.373 25.2369 45.3181 25.2369C44.2633 25.2369 43.4102 24.3847 43.4102 23.3309C43.4102 22.2771 44.2633 21.4248 45.3181 21.4248C46.373 21.4213 47.2261 22.2771 47.2261 23.3309Z" fill="url(#paint30_linear_2059_16745)"/>
<path d="M47.1727 23.2602C47.1727 24.2857 46.3408 25.1132 45.3178 25.1132C44.2912 25.1132 43.4629 24.2822 43.4629 23.2602C43.4629 22.2382 44.2948 21.4072 45.3178 21.4072C46.3408 21.4072 47.1727 22.2347 47.1727 23.2602Z" fill="url(#paint31_radial_2059_16745)"/>
<path opacity="0.5" d="M47.1727 23.2599C47.1727 24.2854 46.3408 25.1129 45.3178 25.1129C44.2912 25.1129 43.4629 24.2819 43.4629 23.2599C43.4629 22.7613 43.6611 22.3087 43.9797 21.9763C43.8204 22.2238 43.7284 22.5209 43.7284 22.8427C43.7284 23.7055 44.401 24.4057 45.2293 24.4057C46.0576 24.4057 46.7302 23.7055 46.7302 22.8427C46.7302 22.3299 46.493 21.8773 46.1284 21.5908C46.7444 21.8914 47.1727 22.5244 47.1727 23.2599Z" fill="url(#paint32_linear_2059_16745)"/>
<path opacity="0.3" d="M46.3834 22.9103C46.3834 23.5468 45.8666 24.0666 45.2259 24.0666C44.5887 24.0666 44.0684 23.5503 44.0684 22.9103C44.0684 22.2737 44.5852 21.7539 45.2259 21.7539C45.8666 21.7539 46.3834 22.2737 46.3834 22.9103Z" fill="url(#paint33_radial_2059_16745)"/>
<path d="M45.1656 22.2873C45.1444 22.4853 45.6966 22.7116 45.8665 22.7116C45.8665 22.7116 46.2311 22.3615 46.0931 22.0291C46.0931 22.0291 45.6895 21.7109 45.3285 21.8028C45.332 21.8028 45.1975 22.015 45.1656 22.2873Z" fill="url(#paint34_linear_2059_16745)"/>
<path d="M44.9004 26.0434C43.6367 25.8206 42.6243 24.6819 42.6632 23.3664C42.8437 24.8694 43.9376 26.1813 46.1252 25.6615C46.3907 25.5978 47.8739 24.9118 47.9978 23.3594C48.0615 25.1275 46.3765 26.3051 44.9004 26.0434Z" fill="url(#paint35_linear_2059_16745)"/>
<path opacity="0.5" d="M47.7851 22.3694C47.6931 22.5922 46.5285 21.4606 46.6842 21.2236C47.1586 21.457 47.5586 21.8354 47.7851 22.3694Z" fill="url(#paint36_linear_2059_16745)"/>
<path d="M0.39824 22.0509C-0.667262 23.8402 0.568154 25.7428 2.23897 26.0398C3.91334 26.3368 5.84965 24.7844 5.21247 22.6202C4.57529 20.456 1.33631 20.4808 0.39824 22.0509Z" fill="url(#paint37_linear_2059_16745)"/>
<path opacity="0.7" d="M1.51223 21.5844C0.584778 22.0618 0.22725 23.6814 1.03788 24.6857C1.84851 25.69 3.74589 25.8067 4.5105 24.3993C5.33883 22.8858 3.83438 20.3892 1.51223 21.5844Z" fill="url(#paint38_linear_2059_16745)"/>
<path opacity="0.8" d="M2.65555 25.311C3.73276 25.311 4.60602 24.4387 4.60602 23.3625C4.60602 22.2864 3.73276 21.4141 2.65555 21.4141C1.57833 21.4141 0.705078 22.2864 0.705078 23.3625C0.705078 24.4387 1.57833 25.311 2.65555 25.311Z" fill="url(#paint39_linear_2059_16745)"/>
<path d="M4.51057 23.2602C4.51057 24.2857 3.6787 25.1132 2.65568 25.1132C1.63265 25.1132 0.800781 24.2822 0.800781 23.2602C0.800781 22.2382 1.63265 21.4072 2.65568 21.4072C3.6787 21.4072 4.51057 22.2347 4.51057 23.2602Z" fill="url(#paint40_radial_2059_16745)"/>
<path opacity="0.5" d="M4.51057 23.2599C4.51057 24.2854 3.6787 25.1129 2.65568 25.1129C1.62911 25.1129 0.800781 24.2819 0.800781 23.2599C0.800781 22.7613 0.999014 22.3087 1.3176 21.9763C1.15831 22.2238 1.06627 22.5209 1.06627 22.8427C1.06627 23.7055 1.73885 24.4057 2.56718 24.4057C3.39551 24.4057 4.06809 23.7055 4.06809 22.8427C4.06809 22.3299 3.83091 21.8773 3.46631 21.5908C4.08225 21.8914 4.51057 22.5244 4.51057 23.2599Z" fill="url(#paint41_linear_2059_16745)"/>
<path opacity="0.3" d="M3.72133 22.9103C3.72133 23.5468 3.20451 24.0666 2.56379 24.0666C1.92307 24.0666 1.40625 23.5503 1.40625 22.9103C1.40625 22.2737 1.92307 21.7539 2.56379 21.7539C3.20451 21.7539 3.72133 22.2737 3.72133 22.9103Z" fill="url(#paint42_radial_2059_16745)"/>
<path d="M2.50743 22.2873C2.48619 22.4853 3.03841 22.7116 3.20833 22.7116C3.20833 22.7116 3.57293 22.3615 3.43488 22.0291C3.43488 22.0291 3.03133 21.7109 2.67027 21.8028C2.67027 21.8028 2.53575 22.015 2.50743 22.2873Z" fill="url(#paint43_linear_2059_16745)"/>
<path d="M2.23829 26.0434C0.974552 25.8206 -0.0378519 24.6819 0.00108676 23.3664C0.18162 24.8694 1.27544 26.1813 3.46308 25.6615C3.72857 25.5978 5.21178 24.9118 5.33568 23.3594C5.3994 25.1275 3.71442 26.3051 2.23829 26.0434Z" fill="url(#paint44_linear_2059_16745)"/>
<path opacity="0.5" d="M5.12303 22.3694C5.03099 22.5922 3.86637 21.4606 4.02213 21.2236C4.49647 21.457 4.89648 21.8354 5.12303 22.3694Z" fill="url(#paint45_linear_2059_16745)"/>
<defs>
<linearGradient id="paint0_linear_2059_16745" x1="24.0054" y1="46.7928" x2="24.0054" y2="0.854635" gradientUnits="userSpaceOnUse">
<stop stop-color="#CA6B34"/>
<stop offset="0.7401" stop-color="#FFBD2B"/>
<stop offset="1" stop-color="#FFA933"/>
</linearGradient>
<linearGradient id="paint1_linear_2059_16745" x1="24.0056" y1="30.0984" x2="24.0056" y2="46.7927" gradientUnits="userSpaceOnUse">
<stop stop-color="#F08D1D"/>
<stop offset="1" stop-color="#8D2C1B"/>
</linearGradient>
<linearGradient id="paint2_linear_2059_16745" x1="24.0056" y1="1.54151" x2="24.0056" y2="46.1519" gradientUnits="userSpaceOnUse">
<stop stop-color="#CA6B34"/>
<stop offset="0.1742" stop-color="#CC6E34"/>
<stop offset="0.2919" stop-color="#D27733"/>
<stop offset="0.3931" stop-color="#DB8631"/>
<stop offset="0.4848" stop-color="#E99B2F"/>
<stop offset="0.5694" stop-color="#FBB72C"/>
<stop offset="0.5853" stop-color="#FFBD2B"/>
<stop offset="1" stop-color="#FFA933"/>
</linearGradient>
<linearGradient id="paint3_linear_2059_16745" x1="24.0053" y1="17.5489" x2="24.0053" y2="0.854633" gradientUnits="userSpaceOnUse">
<stop stop-color="#EBBD38"/>
<stop offset="1" stop-color="#FFF29E"/>
</linearGradient>
<linearGradient id="paint4_linear_2059_16745" x1="24.0053" y1="44.6506" x2="24.0053" y2="2.99541" gradientUnits="userSpaceOnUse">
<stop stop-color="#CA6B34"/>
<stop offset="0.7401" stop-color="#FFBD2B"/>
<stop offset="1" stop-color="#FFA933"/>
</linearGradient>
<linearGradient id="paint5_linear_2059_16745" x1="24.0061" y1="33.3105" x2="24.0061" y2="44.6513" gradientUnits="userSpaceOnUse">
<stop stop-color="#F08D1D"/>
<stop offset="1" stop-color="#8D2C1B"/>
</linearGradient>
<linearGradient id="paint6_linear_2059_16745" x1="24.0061" y1="14.3367" x2="24.0061" y2="2.99534" gradientUnits="userSpaceOnUse">
<stop stop-color="#EBBD38"/>
<stop offset="1" stop-color="#FFF29E"/>
</linearGradient>
<linearGradient id="paint7_linear_2059_16745" x1="24.0052" y1="3.64895" x2="24.0052" y2="43.9959" gradientUnits="userSpaceOnUse">
<stop stop-color="#CA6B34"/>
<stop offset="0.1742" stop-color="#CC6E34"/>
<stop offset="0.2919" stop-color="#D27733"/>
<stop offset="0.3931" stop-color="#DB8631"/>
<stop offset="0.4848" stop-color="#E99B2F"/>
<stop offset="0.5694" stop-color="#FBB72C"/>
<stop offset="0.5853" stop-color="#FFBD2B"/>
<stop offset="1" stop-color="#FFA933"/>
</linearGradient>
<linearGradient id="paint8_linear_2059_16745" x1="23.1961" y1="4.16351" x2="23.6861" y2="3.20835" gradientUnits="userSpaceOnUse">
<stop stop-color="#D16509"/>
<stop offset="1" stop-color="#8D2C1B"/>
</linearGradient>
<linearGradient id="paint9_linear_2059_16745" x1="24.2349" y1="2.2386" x2="27.8519" y2="1.82182" gradientUnits="userSpaceOnUse">
<stop stop-color="#CA6B34"/>
<stop offset="1" stop-color="#FFBD2B"/>
</linearGradient>
<linearGradient id="paint10_linear_2059_16745" x1="21.9596" y1="4.59537" x2="26.5202" y2="0.872957" gradientUnits="userSpaceOnUse">
<stop stop-color="#D16509"/>
<stop offset="1" stop-color="#8D2C1B"/>
</linearGradient>
<linearGradient id="paint11_linear_2059_16745" x1="24.1564" y1="2.77143" x2="23.6229" y2="1.77958" gradientUnits="userSpaceOnUse">
<stop stop-color="#E39330"/>
<stop offset="1" stop-color="#FFCD61"/>
</linearGradient>
<linearGradient id="paint12_linear_2059_16745" x1="23.8388" y1="2.39092" x2="24.392" y2="3.56352" gradientUnits="userSpaceOnUse">
<stop stop-color="#D16509"/>
<stop offset="1" stop-color="#8D2C1B"/>
</linearGradient>
<linearGradient id="paint13_linear_2059_16745" x1="23.8747" y1="3.67501" x2="23.8747" y2="0.874472" gradientUnits="userSpaceOnUse">
<stop stop-color="#CA6B34"/>
<stop offset="1" stop-color="#FFBD2B"/>
</linearGradient>
<linearGradient id="paint14_linear_2059_16745" x1="25.4246" y1="2.83908" x2="22.509" y2="2.83908" gradientUnits="userSpaceOnUse">
<stop stop-color="#F08D1D"/>
<stop offset="1" stop-color="#8D2C1B"/>
</linearGradient>
<linearGradient id="paint15_linear_2059_16745" x1="25.9422" y1="4.62217" x2="21.398" y2="0.913245" gradientUnits="userSpaceOnUse">
<stop stop-color="#D16509"/>
<stop offset="1" stop-color="#8D2C1B"/>
</linearGradient>
<linearGradient id="paint16_linear_2059_16745" x1="24.0945" y1="3.35835" x2="24.0512" y2="2.25133" gradientUnits="userSpaceOnUse">
<stop stop-color="#E39330"/>
<stop offset="1" stop-color="#FFCD61"/>
</linearGradient>
<linearGradient id="paint17_linear_2059_16745" x1="24.7599" y1="46.7321" x2="24.248" y2="45.7343" gradientUnits="userSpaceOnUse">
<stop stop-color="#D16509"/>
<stop offset="1" stop-color="#8D2C1B"/>
</linearGradient>
<linearGradient id="paint18_linear_2059_16745" x1="23.6994" y1="44.7762" x2="20.0825" y2="44.3595" gradientUnits="userSpaceOnUse">
<stop stop-color="#CA6B34"/>
<stop offset="1" stop-color="#FFBD2B"/>
</linearGradient>
<linearGradient id="paint19_linear_2059_16745" x1="25.9981" y1="47.1125" x2="21.4121" y2="43.3694" gradientUnits="userSpaceOnUse">
<stop stop-color="#D16509"/>
<stop offset="1" stop-color="#8D2C1B"/>
</linearGradient>
<linearGradient id="paint20_linear_2059_16745" x1="23.7776" y1="45.3097" x2="24.3112" y2="44.3178" gradientUnits="userSpaceOnUse">
<stop stop-color="#E39330"/>
<stop offset="1" stop-color="#FFCD61"/>
</linearGradient>
<linearGradient id="paint21_linear_2059_16745" x1="23.1748" y1="46.7459" x2="23.6916" y2="45.7385" gradientUnits="userSpaceOnUse">
<stop stop-color="#D16509"/>
<stop offset="1" stop-color="#8D2C1B"/>
</linearGradient>
<linearGradient id="paint22_linear_2059_16745" x1="24.0739" y1="46.173" x2="24.0739" y2="43.4124" gradientUnits="userSpaceOnUse">
<stop stop-color="#CA6B34"/>
<stop offset="1" stop-color="#FFBD2B"/>
</linearGradient>
<linearGradient id="paint23_linear_2059_16745" x1="22.5654" y1="45.2393" x2="25.4492" y2="45.2393" gradientUnits="userSpaceOnUse">
<stop stop-color="#F08D1D"/>
<stop offset="1" stop-color="#8D2C1B"/>
</linearGradient>
<linearGradient id="paint24_linear_2059_16745" x1="21.9547" y1="47.1255" x2="26.5403" y2="43.3826" gradientUnits="userSpaceOnUse">
<stop stop-color="#D16509"/>
<stop offset="1" stop-color="#8D2C1B"/>
</linearGradient>
<linearGradient id="paint25_linear_2059_16745" x1="23.8146" y1="45.8615" x2="23.8574" y2="44.769" gradientUnits="userSpaceOnUse">
<stop stop-color="#E39330"/>
<stop offset="1" stop-color="#FFCD61"/>
</linearGradient>
<linearGradient id="paint26_linear_2059_16745" x1="2.6698" y1="22.9248" x2="2.6698" y2="26.4629" gradientUnits="userSpaceOnUse">
<stop stop-color="#F08D1D"/>
<stop offset="1" stop-color="#8D2C1B"/>
</linearGradient>
<linearGradient id="paint27_linear_2059_16745" x1="45.3455" y1="22.9254" x2="45.3455" y2="26.4635" gradientUnits="userSpaceOnUse">
<stop stop-color="#F08D1D"/>
<stop offset="1" stop-color="#8D2C1B"/>
</linearGradient>
<linearGradient id="paint28_linear_2059_16745" x1="45.332" y1="26.0913" x2="45.332" y2="21.2382" gradientUnits="userSpaceOnUse">
<stop stop-color="#CA6B34"/>
<stop offset="1" stop-color="#FFBD2B"/>
</linearGradient>
<linearGradient id="paint29_linear_2059_16745" x1="45.3251" y1="25.9349" x2="45.3251" y2="22.4354" gradientUnits="userSpaceOnUse">
<stop stop-color="#F08D1D"/>
<stop offset="1" stop-color="#8D2C1B"/>
</linearGradient>
<linearGradient id="paint30_linear_2059_16745" x1="45.317" y1="26.1789" x2="45.317" y2="23.6695" gradientUnits="userSpaceOnUse">
<stop stop-color="#F08D1D"/>
<stop offset="0.2148" stop-color="#D4721C"/>
<stop offset="0.5567" stop-color="#AE4C1C"/>
<stop offset="0.8305" stop-color="#96351B"/>
<stop offset="1" stop-color="#8D2C1B"/>
</linearGradient>
<radialGradient id="paint31_radial_2059_16745" cx="0" cy="0" r="1" gradientUnits="userSpaceOnUse" gradientTransform="translate(45.3167 23.2599) scale(1.85588 1.85399)">
<stop stop-color="#D14B4B"/>
<stop offset="0.1657" stop-color="#C84141"/>
<stop offset="0.4446" stop-color="#B02727"/>
<stop offset="0.7282" stop-color="#910606"/>
<stop offset="0.8267" stop-color="#940F0F"/>
<stop offset="0.9854" stop-color="#9D2626"/>
<stop offset="1" stop-color="#9E2929"/>
</radialGradient>
<linearGradient id="paint32_linear_2059_16745" x1="45.3167" y1="24.9947" x2="45.3167" y2="22.7893" gradientUnits="userSpaceOnUse">
<stop stop-color="#8B2788"/>
<stop offset="1" stop-color="white"/>
</linearGradient>
<radialGradient id="paint33_radial_2059_16745" cx="0" cy="0" r="1" gradientUnits="userSpaceOnUse" gradientTransform="translate(45.2272 22.9111) scale(1.1568 1.15561)">
<stop offset="0.1627" stop-color="#E61C24"/>
<stop offset="0.2425" stop-color="#DA1B22"/>
<stop offset="0.387" stop-color="#BA171D"/>
<stop offset="0.5797" stop-color="#861015"/>
<stop offset="0.8104" stop-color="#3F080A"/>
<stop offset="1"/>
</radialGradient>
<linearGradient id="paint34_linear_2059_16745" x1="45.1662" y1="22.249" x2="46.1255" y2="22.249" gradientUnits="userSpaceOnUse">
<stop stop-color="white"/>
<stop offset="1" stop-color="#FFF7C4"/>
</linearGradient>
<linearGradient id="paint35_linear_2059_16745" x1="42.6627" y1="24.7187" x2="47.9994" y2="24.7187" gradientUnits="userSpaceOnUse">
<stop stop-color="#D16509"/>
<stop offset="1" stop-color="#8D2C1B"/>
</linearGradient>
<linearGradient id="paint36_linear_2059_16745" x1="46.6674" y1="21.8105" x2="47.7838" y2="21.8105" gradientUnits="userSpaceOnUse">
<stop stop-color="#EBBD38"/>
<stop offset="1" stop-color="#FFF29E"/>
</linearGradient>
<linearGradient id="paint37_linear_2059_16745" x1="2.67038" y1="26.0913" x2="2.67038" y2="21.2382" gradientUnits="userSpaceOnUse">
<stop stop-color="#CA6B34"/>
<stop offset="1" stop-color="#FFBD2B"/>
</linearGradient>
<linearGradient id="paint38_linear_2059_16745" x1="2.6635" y1="25.9349" x2="2.6635" y2="22.4354" gradientUnits="userSpaceOnUse">
<stop stop-color="#F08D1D"/>
<stop offset="1" stop-color="#8D2C1B"/>
</linearGradient>
<linearGradient id="paint39_linear_2059_16745" x1="2.65495" y1="26.4283" x2="2.65495" y2="23.6076" gradientUnits="userSpaceOnUse">
<stop stop-color="#F08D1D"/>
<stop offset="1" stop-color="#8D2C1B"/>
</linearGradient>
<radialGradient id="paint40_radial_2059_16745" cx="0" cy="0" r="1" gradientUnits="userSpaceOnUse" gradientTransform="translate(2.65507 23.2599) scale(1.85589 1.85399)">
<stop stop-color="#D14B4B"/>
<stop offset="0.1657" stop-color="#C84141"/>
<stop offset="0.4446" stop-color="#B02727"/>
<stop offset="0.7282" stop-color="#910606"/>
<stop offset="0.8267" stop-color="#940F0F"/>
<stop offset="0.9854" stop-color="#9D2626"/>
<stop offset="1" stop-color="#9E2929"/>
</radialGradient>
<linearGradient id="paint41_linear_2059_16745" x1="3.0446" y1="24.8484" x2="2.6271" y2="23.1419" gradientUnits="userSpaceOnUse">
<stop stop-color="#8B2788"/>
<stop offset="1" stop-color="white"/>
</linearGradient>
<radialGradient id="paint42_radial_2059_16745" cx="0" cy="0" r="1" gradientUnits="userSpaceOnUse" gradientTransform="translate(2.56563 22.9111) scale(1.1568 1.15561)">
<stop offset="0.1627" stop-color="#E61C24"/>
<stop offset="0.2425" stop-color="#DA1B22"/>
<stop offset="0.387" stop-color="#BA171D"/>
<stop offset="0.5797" stop-color="#861015"/>
<stop offset="0.8104" stop-color="#3F080A"/>
<stop offset="1"/>
</radialGradient>
<linearGradient id="paint43_linear_2059_16745" x1="2.50506" y1="22.249" x2="3.46433" y2="22.249" gradientUnits="userSpaceOnUse">
<stop stop-color="white"/>
<stop offset="1" stop-color="#FFF7C4"/>
</linearGradient>
<linearGradient id="paint44_linear_2059_16745" x1="0.00112216" y1="24.7187" x2="5.3378" y2="24.7187" gradientUnits="userSpaceOnUse">
<stop stop-color="#D16509"/>
<stop offset="1" stop-color="#8D2C1B"/>
</linearGradient>
<linearGradient id="paint45_linear_2059_16745" x1="4.00584" y1="21.8105" x2="5.12225" y2="21.8105" gradientUnits="userSpaceOnUse">
<stop stop-color="#EBBD38"/>
<stop offset="1" stop-color="#FFF29E"/>
</linearGradient>
</defs>
</svg>
